<?xml version="1.0" encoding="utf-8"?>
<svg version="1.1" x="0px" y="0px" viewBox="0 0 90.34 51.777" enable-background="new 0 0 100 100" xmlns="http://www.w3.org/2000/svg">
  <path fill="#007bff" d="M 89.526 11.95 L 89.526 9.925 L 89.741 9.925 L 89.741 9.23 C 89.741 8.088 88.69 7.918 88.69 7.918 L 79.799 6.135 L 78.411 5.463 L 78.97 2.761 L 75.972 2.122 L 70.459 1 L 69.796 3.552 L 69.489 3.642 L 69.489 0 L 68.871 0 L 68.871 2.554 C 68.712 2.501 68.546 2.453 68.382 2.402 L 68.382 0 L 67.76 0 L 67.76 2.236 C 67.612 2.194 67.46 2.156 67.308 2.123 L 67.308 0 L 66.686 0 L 66.686 1.979 C 66.508 1.942 66.327 1.907 66.142 1.87 L 66.142 0 L 65.52 0 L 65.52 1.751 C 65.346 1.721 65.18 1.69 65.006 1.66 L 65.006 0 L 64.384 0 L 64.384 1.56 C 64.221 1.534 64.059 1.512 63.892 1.49 L 63.892 0 L 63.27 0 L 63.27 1.405 C 63.107 1.383 62.941 1.363 62.77 1.34 L 62.77 0 L 62.152 0 L 62.152 1.268 C 61.97 1.249 61.793 1.227 61.615 1.212 L 61.615 0 L 60.989 0 L 60.989 1.147 C 60.819 1.132 60.656 1.121 60.493 1.103 L 60.493 0 L 59.871 0 L 59.871 1.051 C 59.708 1.04 59.542 1.031 59.382 1.019 L 59.382 0 L 58.764 0 L 58.764 0.975 C 58.616 0.966 58.468 0.954 58.327 0.945 L 58.327 0 L 57.701 0 L 57.701 0.91 C 57.527 0.899 57.364 0.893 57.201 0.884 L 57.201 0 L 56.572 0 L 56.572 0.857 C 56.413 0.853 56.25 0.844 56.094 0.84 L 56.094 0 L 55.472 0 L 55.472 0.82 C 55.302 0.816 55.139 0.809 54.983 0.805 L 54.983 0 L 54.357 0 L 54.357 0.794 C 54.176 0.788 54.013 0.788 53.854 0.784 L 53.854 0 L 53.232 0 L 53.232 0.781 C 52.899 0.777 52.714 0.781 52.714 0.781 L 52.714 0 L 52.096 0 L 52.096 0.774 C 47.595 0.774 46.525 4.072 46.525 4.072 L 43.249 4.072 C 40.151 3.926 36.46 8.486 36.46 8.486 L 35.15 8.486 C 34.873 8.206 34.295 8.141 34.295 8.141 C 33.399 8.141 33.359 8.611 33.359 8.611 L 31.434 8.698 L 30.757 9.251 L 26.7 9.251 C 24.187 6.908 18.209 6.819 18.209 6.819 C 18.209 6.31 17.317 6.223 17.317 6.223 C 15.14 6.223 15.44 6.863 15.44 6.863 C 15.44 6.863 12.494 6.907 9.854 7.074 C 7.208 7.244 4.135 8.784 4.135 8.784 L 3.287 8.784 L 2.602 9.162 L 2.987 9.763 L 2.558 10.742 L 0 10.958 L 0 11.643 L 1.07 12.837 L 2.092 13.05 L 2.732 13.774 L 2.48 14.284 L 2.776 14.284 L 2.776 14.754 L 4.053 14.754 L 4.612 15.394 L 5.208 15.013 L 8.873 16.203 L 14.677 16.203 L 15.673 15.65 C 16.461 16.151 17.887 16.096 17.887 16.096 C 17.887 16.096 17.931 16.57 18.579 16.57 C 19.238 16.57 19.293 16.135 19.293 16.135 C 22.128 15.924 23.716 14.205 23.716 14.205 C 23.794 14.542 24.19 14.61 24.19 14.61 L 25.752 14.61 L 25.967 14.832 L 28.717 14.832 L 28.843 14.708 L 29.739 14.708 L 29.739 14.858 L 33.148 14.858 L 33.285 14.669 L 36.061 14.669 L 36.491 14.915 L 42.084 14.915 L 42.084 14.501 L 48.813 14.501 C 49.713 15.158 51.804 15.909 51.804 15.909 L 51.804 17.849 L 51.908 17.952 L 48.647 22.94 L 43.413 31.398 L 36.551 42.147 L 36.551 42.539 C 34.785 42.728 29.592 44.133 29.592 44.133 L 28.844 44.133 L 28.692 43.983 L 28.144 43.983 L 28.144 44.923 L 28.844 44.923 L 28.844 44.792 L 29.555 44.792 L 29.555 45.127 L 22.407 45.127 L 21.997 45.544 L 18.281 45.544 L 18.281 45.298 L 17.737 45.298 L 17.737 45.185 L 16.48 45.185 L 16.48 44.696 L 15.525 44.696 L 15.525 44.907 L 14.381 44.907 L 14.381 44.772 L 13.367 44.772 L 13.367 45.074 L 12.856 45.074 L 12.856 45.28 L 12.519 45.28 L 12.519 45.448 L 12.282 45.448 L 12.282 45.674 L 12.015 45.674 C 12.015 45.674 12.067 46.177 12.015 46.233 C 11.96 46.29 12.241 46.233 12.241 46.233 L 12.241 46.423 L 12.519 46.423 L 12.519 46.638 L 12.741 46.638 C 12.741 46.638 12.852 46.751 12.919 46.816 C 12.982 46.882 13.345 46.816 13.345 46.816 L 13.345 47.192 L 12.52 47.192 L 12.52 47.545 L 11.454 47.545 L 11.454 48.563 L 12.413 48.563 L 12.413 48.898 L 13.294 48.898 L 13.294 49.192 L 14.278 49.192 L 14.415 49.049 L 15.54 49.049 L 15.54 49.234 L 16.632 49.234 L 16.632 48.697 L 17.169 48.697 L 17.362 48.503 L 19.446 48.503 L 19.446 48.147 L 21.356 48.147 C 21.356 48.147 21.304 48.336 21.356 48.391 C 21.412 48.446 23.436 48.391 23.436 48.391 L 23.569 48.519 L 24.842 48.519 L 24.842 46.703 L 29.462 46.703 L 29.462 47.04 L 27.978 47.04 L 27.978 47.941 L 28.899 47.941 L 28.899 47.789 L 29.625 47.789 L 36.155 49.157 C 37.358 50.231 39.553 50.416 39.553 50.416 C 39.89 51.43 40.549 51.599 40.549 51.599 L 46.116 51.599 L 46.942 50.155 L 47.109 50.155 L 47.109 49.855 L 46.846 49.855 L 47.764 48.391 L 47.764 47.734 L 45.7 47.734 L 45.7 46.981 L 46.732 46.981 C 47.802 46.981 47.687 45.691 47.687 45.691 C 47.687 45.691 48.849 45.297 50.034 44.864 C 51.215 44.434 51.515 43.889 51.515 43.889 L 51.515 39.951 C 51.515 39.951 52.696 39.951 54.498 39.951 C 56.301 39.951 57.311 38.883 57.311 38.883 L 79.517 21.965 L 80.242 21.965 L 80.242 20.484 L 84.051 14.837 L 86.679 14.746 L 87.9 13.917 L 89.362 13.917 C 90.017 13.917 89.999 13.226 89.999 13.226 L 89.999 11.95 L 89.526 11.95 Z"/>
</svg>