<svg xmlns="http://www.w3.org/2000/svg" xmlns:xlink="http://www.w3.org/1999/xlink" version="1.1" x="0px" y="0px" viewBox="0 0 100 125" enable-background="new 0 0 100 100" xml:space="preserve"><path d="M94.526,36.15v-2.025h0.215V33.43c0-1.142-1.051-1.312-1.051-1.312l-8.891-1.783l-1.388-0.672l0.559-2.702l-2.998-0.639  L75.459,25.2l-0.663,2.552l-0.307,0.09V24.2h-0.618v2.554c-0.159-0.053-0.325-0.101-0.489-0.152V24.2h-0.622v2.236  c-0.148-0.042-0.3-0.08-0.452-0.113V24.2h-0.622v1.979c-0.178-0.037-0.359-0.072-0.544-0.109V24.2h-0.622v1.751  c-0.174-0.03-0.34-0.061-0.514-0.091V24.2h-0.622v1.56c-0.163-0.026-0.325-0.048-0.492-0.07V24.2h-0.622v1.405  c-0.163-0.022-0.329-0.042-0.5-0.065V24.2h-0.618v1.268c-0.182-0.019-0.359-0.041-0.537-0.056V24.2h-0.626v1.147  c-0.17-0.015-0.333-0.026-0.496-0.044V24.2h-0.622v1.051c-0.163-0.011-0.329-0.02-0.489-0.032V24.2h-0.618v0.975  c-0.148-0.009-0.296-0.021-0.437-0.03V24.2h-0.626v0.91c-0.174-0.011-0.337-0.017-0.5-0.026V24.2h-0.629v0.857  c-0.159-0.004-0.322-0.013-0.478-0.017V24.2h-0.622v0.82c-0.17-0.004-0.333-0.011-0.489-0.015V24.2h-0.626v0.794  c-0.181-0.006-0.344-0.006-0.503-0.01V24.2h-0.622v0.781c-0.333-0.004-0.518,0-0.518,0V24.2h-0.618v0.774  c-4.501,0-5.571,3.298-5.571,3.298h-3.276c-3.098-0.146-6.789,4.414-6.789,4.414h-1.31c-0.277-0.28-0.855-0.345-0.855-0.345  c-0.896,0-0.936,0.47-0.936,0.47l-1.925,0.087l-0.677,0.553h-4.057c-2.513-2.343-8.491-2.432-8.491-2.432  c0-0.509-0.892-0.596-0.892-0.596c-2.177,0-1.877,0.64-1.877,0.64s-2.946,0.044-5.586,0.211c-2.646,0.17-5.719,1.71-5.719,1.71  H8.287l-0.685,0.378l0.385,0.601l-0.429,0.979L5,35.158v0.685l1.07,1.194l1.022,0.213l0.64,0.724l-0.252,0.51h0.296v0.47h1.277  l0.559,0.64l0.596-0.381l3.665,1.19h5.804l0.996-0.553c0.788,0.501,2.214,0.446,2.214,0.446s0.044,0.474,0.692,0.474  c0.659,0,0.714-0.435,0.714-0.435c2.835-0.211,4.423-1.93,4.423-1.93c0.078,0.337,0.474,0.405,0.474,0.405h1.562l0.215,0.222h2.75  l0.126-0.124h0.896v0.15h3.409l0.137-0.189h2.776l0.43,0.246h5.593v-0.414h6.729c0.9,0.657,2.991,1.408,2.991,1.408v1.94  l0.104,0.103l-3.261,4.988l-5.234,8.458l-6.862,10.749v0.392c-1.766,0.189-6.959,1.594-6.959,1.594h-0.748l-0.152-0.15h-0.548v0.94  h0.7v-0.131h0.711v0.335h-7.148l-0.41,0.417h-3.716v-0.246h-0.544v-0.113H21.48v-0.489h-0.955v0.211h-1.144v-0.135h-1.014v0.302  h-0.511v0.206h-0.337v0.168h-0.237v0.226h-0.267c0,0,0.052,0.503,0,0.559c-0.055,0.057,0.226,0,0.226,0v0.19h0.278v0.215h0.222  c0,0,0.111,0.113,0.178,0.178c0.063,0.066,0.426,0,0.426,0v0.376h-0.825v0.353h-1.066v1.018h0.959v0.335h0.881v0.294h0.984  l0.137-0.143h1.125v0.185h1.092v-0.537h0.537l0.193-0.194h2.084v-0.356h1.91c0,0-0.052,0.189,0,0.244c0.056,0.055,2.08,0,2.08,0  l0.133,0.128h1.273v-1.816h4.62v0.337h-1.484v0.901h0.921v-0.152h0.726l6.53,1.368c1.203,1.074,3.398,1.259,3.398,1.259  c0.337,1.014,0.996,1.183,0.996,1.183h5.567l0.826-1.444h0.167v-0.3h-0.263l0.918-1.464v-0.657H50.7v-0.753h1.032  c1.07,0,0.955-1.29,0.955-1.29s1.162-0.394,2.347-0.827c1.181-0.43,1.481-0.975,1.481-0.975v-3.938c0,0,1.181,0,2.983,0  c1.803,0,2.813-1.068,2.813-1.068l22.206-16.918h0.725v-1.481l3.809-5.647l2.628-0.091l1.221-0.829h1.462  c0.655,0,0.637-0.691,0.637-0.691V36.15H94.526z"/><text x="0" y="115" fill="#000000" font-size="5px" font-weight="bold" font-family="'Helvetica Neue', Helvetica, Arial-Unicode, Arial, Sans-serif">Created by Philip Glenn</text><text x="0" y="120" fill="#000000" font-size="5px" font-weight="bold" font-family="'Helvetica Neue', Helvetica, Arial-Unicode, Arial, Sans-serif">from the Noun Project</text></svg>