<?xml version="1.0" encoding="utf-8"?>
<svg viewBox="0 0 97.566 77.573" version="1.1" x="0px" y="0px" xmlns="http://www.w3.org/2000/svg">
  <title>Artboard</title>
  <desc>Created with Sketch.</desc>
  <g stroke="none" stroke-width="1" fill="none" fill-rule="evenodd" transform="matrix(1, 0, 0, 1, -1.95055, -3.410131)">
    <g fill="#007bff">
      <path d="M50.6336996,-6.68315018 L46.5321888,-6.68315018 C44.5349314,-5.23276067 43.5363026,-0.822150843 43.5363026,6.54868038 L43.6076333,17.2126085 C43.6076333,18.7581052 44.3387722,19.9528931 45.8010499,20.7969723 C47.2633277,21.6410515 48.8742111,22.1106444 50.6336996,22.2057521 C52.3694116,22.1106444 53.9802945,21.6410515 55.4663493,20.7969723 C56.9524042,19.9528931 57.6954313,18.7581052 57.6954313,17.2126085 L57.7310966,6.54868038 C57.7548737,-0.798373787 56.7681332,-5.20898416 54.7708758,-6.68315018 L50.6336996,-6.68315018 Z M35.5829382,55.6954796 C34.869632,55.6954796 34.5129788,56.0521327 34.5129788,56.765439 C34.5129788,57.4549681 34.869632,57.799733 35.5829382,57.799733 C36.2724674,57.799733 36.6172322,57.4549681 36.6172322,56.765439 C36.6172322,56.0521327 36.2724674,55.6954796 35.5829382,55.6954796 L35.5829382,55.6954796 Z M35.8682607,58.8696923 C35.1787315,58.8696923 34.8339666,59.2144572 34.8339666,59.9039864 C34.8339666,60.6172926 35.1787315,60.9739457 35.8682607,60.9739457 C36.5577899,60.9739457 36.9025547,60.6172926 36.9025547,59.9039864 C36.9025547,59.2144572 36.5577899,58.8696923 35.8682607,58.8696923 L35.8682607,58.8696923 Z M36.1892485,62.0082397 C35.4759423,62.0082397 35.1192891,62.3648929 35.1192891,63.0781991 C35.1192891,63.7677283 35.4759423,64.1124931 36.1892485,64.1124931 C36.8787777,64.1124931 37.2235425,63.7677283 37.2235425,63.0781991 C37.2235425,62.3648929 36.8787777,62.0082397 36.1892485,62.0082397 L36.1892485,62.0082397 Z M36.474571,65.1824525 C35.7850418,65.1824525 35.4402769,65.5272173 35.4402769,66.2167465 C35.4402769,66.9062757 35.7850418,67.2510405 36.474571,67.2510405 C37.1641001,67.2510405 37.508865,66.9062757 37.508865,66.2167465 C37.508865,65.5272173 37.1641001,65.1824525 36.474571,65.1824525 L36.474571,65.1824525 Z M65.7201264,55.6954796 C65.0305972,55.6954796 64.6858324,56.0521327 64.6858324,56.765439 C64.6858324,57.4549681 65.0305972,57.799733 65.7201264,57.799733 C66.4096556,57.799733 66.7544204,57.4549681 66.7544204,56.765439 C66.7544204,56.0521327 66.4096556,55.6954796 65.7201264,55.6954796 L65.7201264,55.6954796 Z M65.4348039,58.8696923 C64.7214977,58.8696923 64.3648446,59.2144572 64.3648446,59.9039864 C64.3648446,60.6172926 64.7214977,60.9739457 65.4348039,60.9739457 C66.1243331,60.9739457 66.4690979,60.6172926 66.4690979,59.9039864 C66.4690979,59.2144572 66.1243331,58.8696923 65.4348039,58.8696923 L65.4348039,58.8696923 Z M65.1138161,62.0082397 C64.4242869,62.0082397 64.0795221,62.3648929 64.0795221,63.0781991 C64.0795221,63.7677283 64.4242869,64.1124931 65.1138161,64.1124931 C65.8271223,64.1124931 66.1837754,63.7677283 66.1837754,63.0781991 C66.1837754,62.3648929 65.8271223,62.0082397 65.1138161,62.0082397 L65.1138161,62.0082397 Z M64.8284936,65.1824525 C64.1151874,65.1824525 63.7585343,65.5272173 63.7585343,66.2167465 C63.7585343,66.9062757 64.1151874,67.2510405 64.8284936,67.2510405 C65.5180228,67.2510405 65.8627876,66.9062757 65.8627876,66.2167465 C65.8627876,65.5272173 65.5180228,65.1824525 64.8284936,65.1824525 L64.8284936,65.1824525 Z M46.2825316,24.5596627 L46.2825316,25.6652873 L44.5705967,25.6652873 L44.5705967,27.6268795 L39.4347918,27.5912142 L39.4347918,26.4499242 L43.1439842,24.5596627 L46.2825316,24.5596627 Z M55.0205329,24.5596627 L58.1590804,24.5596627 L61.8682728,26.4499242 L61.8682728,27.5912142 L56.7324679,27.6268795 L56.7324679,25.6652873 L55.0205329,25.6652873 L55.0205329,24.5596627 Z M48.3154544,67.536363 L42.894327,67.536363 L42.894327,68.7846489 L48.3154544,68.7846489 L48.3154544,67.536363 Z M42.6803352,67.1083793 L48.5651116,67.1083793 L48.7434381,67.1083793 L48.7434381,67.3223712 L48.7434381,68.7846489 L48.7434381,68.9629755 L48.7434381,69.2126327 L48.7434381,70.4252533 L48.7434381,70.6392451 L48.7434381,70.853237 L48.7434381,72.0658576 L48.7434381,72.2798495 L48.7434381,72.4938413 L48.7434381,73.9204538 L48.7434381,74.1344457 L48.5651116,74.1344457 L42.6803352,74.1344457 L42.5020086,74.1344457 L42.5020086,73.9204538 L42.5020086,72.4938413 L42.5020086,72.2798495 L42.5020086,72.0658576 L42.5020086,70.853237 L42.5020086,70.6392451 L42.5020086,70.4252533 L42.5020086,69.2126327 L42.5020086,68.9629755 L42.5020086,68.7846489 L42.5020086,67.3223712 L42.5020086,67.1083793 L42.6803352,67.1083793 Z M48.3154544,72.4938413 L42.894327,72.4938413 L42.894327,73.7064619 L48.3154544,73.7064619 L48.3154544,72.4938413 Z M48.3154544,70.853237 L42.894327,70.853237 L42.894327,72.0658576 L48.3154544,72.0658576 L48.3154544,70.853237 Z M48.3154544,69.2126327 L42.894327,69.2126327 L42.894327,70.4252533 L48.3154544,70.4252533 L48.3154544,69.2126327 Z M52.737953,67.1083793 L58.5870641,67.1083793 L58.801056,67.1083793 L58.801056,67.3223712 L58.801056,68.7846489 L58.801056,68.9629755 L58.801056,69.2126327 L58.801056,70.4252533 L58.801056,70.6392451 L58.801056,70.853237 L58.801056,72.0658576 L58.801056,72.2798495 L58.801056,72.4938413 L58.801056,73.9204538 L58.801056,74.1344457 L58.5870641,74.1344457 L52.737953,74.1344457 L52.5239611,74.1344457 L52.5239611,73.9204538 L52.5239611,72.4938413 L52.5239611,72.2798495 L52.5239611,72.0658576 L52.5239611,70.853237 L52.5239611,70.6392451 L52.5239611,70.4252533 L52.5239611,69.2126327 L52.5239611,68.9629755 L52.5239611,68.7846489 L52.5239611,67.3223712 L52.5239611,67.1083793 L52.737953,67.1083793 Z M58.3730722,72.4938413 L52.9519449,72.4938413 L52.9519449,73.7064619 L58.3730722,73.7064619 L58.3730722,72.4938413 Z M58.3730722,70.853237 L52.9519449,70.853237 L52.9519449,72.0658576 L58.3730722,72.0658576 L58.3730722,70.853237 Z M58.3730722,69.2126327 L52.9519449,69.2126327 L52.9519449,70.4252533 L58.3730722,70.4252533 L58.3730722,69.2126327 Z M58.3730722,67.536363 L52.9519449,67.536363 L52.9519449,68.7846489 L58.3730722,68.7846489 L58.3730722,67.536363 Z M44.6775926,60.3319701 C43.0369883,60.0466476 41.5984876,59.3690067 40.3620899,58.2990474 L40.3620899,62.1865663 L44.6775926,62.1865663 L44.6775926,60.3319701 Z M56.3758148,59.9396517 C58.1115268,59.6543292 59.6570234,58.8934694 61.0123053,57.6570717 L61.3689584,57.3360839 L61.3689584,57.799733 L61.3689584,62.4005582 L61.3689584,62.5788847 L61.1549665,62.5788847 L56.4114801,62.5788847 L56.2331535,62.5788847 L56.2331535,62.4005582 L56.2331535,60.9739457 L45.069911,60.9739457 L45.069911,62.4005582 L45.069911,62.5788847 L44.8559192,62.5788847 L40.1480981,62.5788847 L39.9341062,62.5788847 L39.9341062,62.4005582 L39.9341062,57.799733 L39.9341062,57.3360839 L40.2907593,57.6570717 C41.6222641,58.8934694 43.1558725,59.6543292 44.8915845,59.9396517 L45.069911,59.9396517 L45.069911,60.1536435 L45.069911,60.545962 L56.2331535,60.545962 L56.2331535,60.1536435 L56.2331535,59.9396517 L56.3758148,59.9396517 Z M60.9409747,58.2990474 C59.6332464,59.3927838 58.1947457,60.0704247 56.625472,60.3319701 L56.625472,62.1865663 L60.9409747,62.1865663 L60.9409747,58.2990474 Z M50.6336996,33.5829865 C54.4142227,33.5829865 57.6241007,34.902603 60.2633337,37.5418361 C62.9263438,40.2523997 64.2578486,43.4622778 64.2578486,47.1714702 L64.2578486,47.1714702 C64.2578486,47.7183381 64.2221833,48.2414295 64.1508527,48.7407439 C64.1508527,48.8358516 64.1389644,48.9190704 64.1151874,48.9904011 C64.1151874,48.9428475 64.0438568,49.3589424 63.9011955,50.238687 L60.3703297,80.9821855 L60.3346644,81.160512 L60.1563378,81.160512 L54.3072267,81.1248467 L54.2002308,81.1248467 L54.1289002,81.0178508 L52.6309571,78.2359565 L50.6693649,78.3786177 L50.6336996,78.3786177 L48.6364422,78.2359565 L47.1741644,81.0178508 L47.1028338,81.1248467 L46.9958379,81.1248467 L41.1467268,81.160512 L40.9684002,81.160512 L40.9327349,80.9821855 L37.4018691,50.238687 L37.3305384,50.0246951 C37.3067614,49.9533645 37.2948731,49.8820338 37.2948731,49.8107032 C37.2948731,49.7393726 37.2710961,49.6085996 37.2235425,49.4183848 C37.1046583,48.5861944 37.045216,47.8372228 37.045216,47.1714702 C37.045216,43.4622778 38.3767207,40.2523997 41.0397308,37.5418361 C43.6789639,34.902603 46.8769537,33.5829865 50.6336996,33.5829865 L50.6336996,33.5829865 Z M50.6336996,33.9753049 L50.6336996,33.9753049 C47.0196149,33.9753049 43.9167328,35.2711444 41.3250533,37.8628239 C38.7571509,40.4307263 37.4731997,43.5336084 37.4731997,47.1714702 C37.4731997,47.8609993 37.5326421,48.5743056 37.6515263,49.3113889 C37.6515263,49.4064965 37.6753033,49.5491578 37.7228569,49.7393726 C37.7704104,49.9295874 37.7941875,50.0603604 37.7941875,50.131691 L37.7941875,50.1673563 L41.3250533,80.7325283 L46.8531766,80.696863 L48.3511197,77.9149687 L48.4224503,77.7723074 L48.5651116,77.8079727 L50.6336996,77.950634 L52.737953,77.8079727 L52.8806143,77.7723074 L52.9519449,77.9149687 L54.449888,80.696863 L59.9780112,80.7325283 L63.4732118,50.1673563 L63.4732118,50.131691 C63.5445424,49.8463685 63.6277613,49.4421618 63.722869,48.9190704 C63.722869,48.8239628 63.7347572,48.7526321 63.7585343,48.7050786 C63.8060878,48.0393259 63.8298649,47.5281233 63.8298649,47.1714702 L63.8298649,47.1714702 C63.8298649,43.5573854 62.5340254,40.4545034 59.9423459,37.8628239 C57.3506664,35.2711444 54.2477843,33.9753049 50.6336996,33.9753049 L50.6336996,33.9753049 Z M50.6336996,44.2469146 C51.133014,44.2469146 51.5847748,44.5560142 51.9889815,45.1742127 C52.3218575,45.8161883 52.4882958,46.5057175 52.4882958,47.2428008 L52.4882958,47.2428008 C52.4882958,48.0036606 52.3218575,48.6931903 51.9889815,49.3113889 C51.5847748,49.9058109 51.133014,50.2030216 50.6336996,50.2030216 L50.6336996,50.2030216 C50.1106082,50.2030216 49.6707362,49.9058109 49.3140831,49.3113889 C48.981207,48.7645209 48.8147687,48.0749912 48.8147687,47.2428008 L48.8147687,47.2428008 C48.8147687,46.4343869 48.981207,45.7448577 49.3140831,45.1742127 C49.6469592,44.5560142 50.0868317,44.2469146 50.6336996,44.2469146 L50.6336996,44.2469146 Z M50.6336996,44.7105637 L50.6336996,44.7105637 C50.2532695,44.7105637 49.9322817,44.9364438 49.6707362,45.3882046 C49.3854137,45.9350725 49.2427525,46.5532716 49.2427525,47.2428008 L49.2427525,47.2428008 C49.2427525,47.956107 49.3854137,48.5743056 49.6707362,49.097397 C49.9322817,49.5491578 50.2532695,49.7750379 50.6336996,49.7750379 L50.6336996,49.7750379 C50.9903527,49.7750379 51.3232288,49.5491578 51.6323284,49.097397 C51.9176508,48.5743056 52.0603121,47.956107 52.0603121,47.2428008 L52.0603121,47.2428008 C52.0603121,46.5532716 51.9176508,45.9350725 51.6323284,45.3882046 C51.3232288,44.9364438 50.9903527,44.7105637 50.6336996,44.7105637 L50.6336996,44.7105637 Z M50.6336996,47.0288089 C50.8952451,47.0288089 51.1567911,47.1358049 51.4183365,47.3497967 C51.6323284,47.5637886 51.7393243,47.825334 51.7393243,48.1344336 L51.7393243,48.1344336 C51.7393243,48.4673096 51.6323284,48.7169668 51.4183365,48.8834051 C51.2043446,49.097397 50.9427992,49.2043929 50.6336996,49.2043929 L50.6336996,49.2043929 C50.3483771,49.2043929 50.09872,49.097397 49.8847281,48.8834051 C49.6707362,48.7169668 49.5637403,48.4673096 49.5637403,48.1344336 L49.5637403,48.1344336 C49.5637403,47.825334 49.6707362,47.5637886 49.8847281,47.3497967 C50.122497,47.1358049 50.3721542,47.0288089 50.6336996,47.0288089 L50.6336996,47.0288089 Z M50.6336996,47.4567927 L50.6336996,47.4567927 C50.5148154,47.4567927 50.3602654,47.5281233 50.1700506,47.6707845 C50.0511664,47.7896687 49.991724,47.9442188 49.991724,48.1344336 L49.991724,48.1344336 C49.991724,48.3246484 50.0511664,48.4791984 50.1700506,48.5980826 C50.3127118,48.7407439 50.4672613,48.8120745 50.6336996,48.8120745 L50.6336996,48.8120745 C50.8239144,48.8120745 50.9903527,48.7407439 51.133014,48.5980826 C51.2518982,48.4791984 51.3113406,48.3246484 51.3113406,48.1344336 L51.3113406,48.1344336 C51.3113406,47.9442188 51.2518982,47.7896687 51.133014,47.6707845 C50.9427992,47.5281233 50.7763609,47.4567927 50.6336996,47.4567927 L50.6336996,47.4567927 Z M50.6336996,37.6131667 C53.2491556,37.6131667 55.5079591,38.5404648 57.4101088,40.395061 C59.2884821,42.3209878 60.2276684,44.5797907 60.2276684,47.1714702 L60.2276684,47.1714702 C60.2276684,49.7869262 59.2884821,52.0457296 57.4101088,53.9478793 C55.5079591,55.8024755 53.2491556,56.7297736 50.6336996,56.7297736 L50.6336996,56.7297736 C48.0182436,56.7297736 45.771329,55.8024755 43.8929558,53.9478793 C42.0145825,52.0695061 41.0753962,49.8107032 41.0753962,47.1714702 L41.0753962,47.1714702 C41.0753962,44.5322371 42.0145825,42.2734342 43.8929558,40.395061 C45.771329,38.5404648 48.0182436,37.6131667 50.6336996,37.6131667 L50.6336996,37.6131667 Z M50.6336996,38.0054851 L50.6336996,38.0054851 C48.1609049,38.0054851 46.0090974,38.9090062 44.1782783,40.7160488 C42.3950127,42.4993144 41.5033799,44.6511213 41.5033799,47.1714702 L41.5033799,47.1714702 C41.5033799,49.691819 42.3950127,51.843626 44.1782783,53.6268915 C45.9615438,55.4101571 48.1133508,56.3017899 50.6336996,56.3017899 L50.6336996,56.3017899 C53.177825,56.3017899 55.3415208,55.4101571 57.1247863,53.6268915 C58.9080519,51.843626 59.7996847,49.691819 59.7996847,47.1714702 L59.7996847,47.1714702 C59.7996847,44.6511213 58.9080519,42.4993144 57.1247863,40.7160488 C55.2701901,38.9090062 53.1064944,38.0054851 50.6336996,38.0054851 L50.6336996,38.0054851 Z M50.6336996,41.6433469 C52.1554198,41.6433469 53.4512592,42.1902148 54.5212186,43.2839512 C55.614955,44.3539106 56.1618229,45.64975 56.1618229,47.1714702 L56.1618229,47.1714702 C56.1618229,48.7169668 55.614955,50.0128068 54.5212186,51.0589891 C53.4512592,52.1527255 52.1554198,52.6995934 50.6336996,52.6995934 L50.6336996,52.6995934 C49.1357566,52.6995934 47.8399171,52.1527255 46.7461807,51.0589891 C45.6762213,49.9890298 45.1412417,48.6931903 45.1412417,47.1714702 L45.1412417,47.1714702 C45.1412417,45.64975 45.6762213,44.3539106 46.7461807,43.2839512 C47.8399171,42.1902148 49.1357566,41.6433469 50.6336996,41.6433469 L50.6336996,41.6433469 Z M50.6336996,42.0713306 L50.6336996,42.0713306 C49.2546407,42.0713306 48.0657972,42.570645 47.0671685,43.5692737 C46.0685398,44.5679024 45.5692254,45.7686348 45.5692254,47.1714702 L45.5692254,47.1714702 C45.5692254,48.5743056 46.0685398,49.7750379 47.0671685,50.7736666 C48.0657972,51.7485183 49.2546407,52.2359444 50.6336996,52.2359444 L50.6336996,52.2359444 C52.0127585,52.2359444 53.2134903,51.7485183 54.2358961,50.7736666 C55.2345248,49.7750379 55.7338392,48.5743056 55.7338392,47.1714702 L55.7338392,47.1714702 C55.7338392,45.7686348 55.2345248,44.5679024 54.2358961,43.5692737 C53.2372674,42.570645 52.036535,42.0713306 50.6336996,42.0713306 L50.6336996,42.0713306 Z M67.0397429,69.1769674 L84.4087496,70.5322492 L89.2235667,38.112481 L71.283915,34.2249621 L67.0397429,69.1769674 Z M34.2633217,69.1769674 L30.0191496,34.2249621 L12.0438326,38.112481 L16.894315,70.5322492 L34.2633217,69.1769674 Z M58.1590804,6.51301507 L58.1590804,6.53084772 L58.1590804,6.54868038 L58.123415,17.2126085 L58.123415,17.3731024 L58.123415,17.4266004 C58.0758615,17.8308071 57.9807538,18.2706796 57.8380926,18.7462169 C57.6241007,19.2217542 57.3982206,19.5902961 57.1604516,19.8518416 C55.7813927,21.5637765 53.6176975,22.4910746 50.6693649,22.6337359 L50.6336996,22.6337359 L50.5980343,22.6337359 L50.4553731,22.6337359 L50.3840425,22.6337359 L48.8860994,22.419744 C48.5532233,22.3484134 48.0776855,22.2176404 47.4594869,22.0274256 C44.606262,21.0287968 43.1796495,19.4238578 43.1796495,17.2126085 L43.1439842,6.54868038 L43.1439842,6.53084772 L43.1439842,6.51301507 L42.430678,6.54868038 L41.9670289,7.58297441 C39.4704571,8.51027251 37.1165466,9.92499672 34.9052973,11.8271465 L34.9052973,24.2386749 L34.9052973,24.4526667 L34.7269707,24.4526667 L27.20159,24.4526667 C27.0827058,25.165973 27.0232634,25.7841715 27.0232634,26.3072629 L26.7736062,34.5102846 L29.9121537,33.8326437 L30.3758027,33.7256477 L30.4471333,34.1892968 L34.6913054,69.141302 L34.7269707,69.5692858 L34.298987,69.6049511 L30.4471333,69.8902736 L31.1961049,76.1673684 L33.6213461,76.5596868 C33.5024619,78.7233826 33.859115,80.56609 34.6913054,82.0878101 L35.1549544,86.5816394 L36.0109219,86.8312965 L65.2564773,86.8312965 L66.1124448,86.5816394 L66.6117592,82.0878101 C67.4201731,80.5185364 67.7768262,78.6758285 67.6817185,76.5596868 L70.1069597,76.1673684 L70.8202659,69.8902736 L67.0040776,69.6049511 L66.5760939,69.5692858 L66.6117592,69.141302 L70.8559312,34.1892968 L70.9272619,33.7256477 L71.3552456,33.8326437 L74.493793,34.5102846 L74.2798012,26.3072629 C74.2560241,25.9743869 74.1965823,25.3561878 74.1014746,24.4526667 L66.5760939,24.4526667 L66.362102,24.4526667 L66.362102,24.2386749 L66.362102,11.8271465 C64.1032991,9.90121966 61.7612768,8.48649546 59.3360356,7.58297441 L58.8367213,6.54868038 L58.1590804,6.51301507 Z M64.6145017,87.2592803 L36.6885628,87.2592803 L36.6885628,88.7215581 L37.0808813,90.6831502 L42.0740249,90.6118196 L43.3936414,89.5775255 L50.6336996,89.6131908 L57.9094232,89.5775255 L59.2290397,90.6118196 L64.2221833,90.6831502 L64.6145017,88.7215581 L64.6145017,87.2592803 Z M27.3085859,24.024683 L34.4773135,24.024683 L34.4773135,12.2551302 C30.5541293,15.8454384 28.1645534,19.7686227 27.3085859,24.024683 L27.3085859,24.024683 Z M66.7900857,12.2551302 L66.7900857,24.024683 L73.9944787,24.024683 C73.0671806,19.6972921 70.6657164,15.7741078 66.7900857,12.2551302 L66.7900857,12.2551302 Z" transform="translate(50.633700, 42.000000) rotate(-270.000000) translate(-50.633700, -42.000000) "/>
    </g>
  </g>
</svg>