<svg xmlns="http://www.w3.org/2000/svg" xmlns:xlink="http://www.w3.org/1999/xlink" xmlns:sketch="http://www.bohemiancoding.com/sketch/ns" viewBox="0 0 100 125" version="1.1" x="0px" y="0px"><title>Deep Space Nine</title><desc>Created with Sketch.</desc><g stroke="none" stroke-width="1" fill="none" fill-rule="evenodd" sketch:type="MSPage"><g sketch:type="MSArtboardGroup" fill="#000000"><path d="M49.9282051,30.0410256 C47.5350426,30.0410256 45.2017092,30.4717949 42.9282051,31.3333333 C41.4923077,28.0068374 40.2658118,25.1111113 39.2487179,22.6461538 C38.2316241,20.1811964 37.6871795,18.6974359 37.6153846,18.1948718 C37.4,16.9025641 37.8307692,13.7316241 38.9076923,8.68205128 C41.9230769,7.89230769 44.9145297,7.42564103 47.8820513,7.28205128 L47.8102564,8.32307692 L48.4205128,8.68205128 L48.7076923,9.14871795 L51.3641026,9.18461538 L51.5794872,8.75384615 L52.225641,8.28717949 L52.4410256,7.31794872 C58.2085472,7.67692308 63.62906,9.10085488 68.7025641,11.5897436 L68.4512821,12.5589744 L68.774359,13.2769231 L68.7384615,13.7435897 L71.0717949,15.0358974 L71.574359,14.7487179 L72.2923077,14.7487179 L72.7230769,13.8512821 C77.8683759,17.1299143 82.1401708,21.2940169 85.5384615,26.3435897 L84.8205128,26.9897436 L84.7128205,27.7794872 L84.4615385,28.174359 L85.8615385,30.4717949 L86.4,30.5076923 L87.0102564,30.8666667 L87.8717949,30.2923077 C89.3794872,33.2119656 90.5162395,36.1555554 91.2820513,39.1230769 C87.42906,42.545299 84.9521369,44.4598292 83.8512821,44.8666667 C83.3487179,45.0341882 81.7632477,45.303419 79.0948718,45.674359 C76.4264959,46.045299 73.2735041,46.4461538 69.6358974,46.8769231 C68.654701,40.7982908 65.5076923,36.1435897 60.1948718,32.9128205 L60.4820513,32.4102564 C60.5538462,32.2905985 60.5299143,32.1948718 60.4102564,32.1230769 L60.0512821,31.9076923 C59.8837605,31.8598292 59.7880344,31.8957267 59.7641026,32.0153846 L59.4769231,32.4820513 C56.4854703,30.854701 53.3025641,30.0410256 49.9282051,30.0410256 L49.9282051,30.0410256 Z M43.5025641,63.1384615 L42.8923077,64.1794872 L43,64.2512821 L43.2153846,64.3589744 L43.1435897,64.6102564 L42.5333333,66.5128205 L42.4974359,66.5487179 L42.4974359,66.5846154 L29.2871795,89.4512821 L29.1435897,89.7384615 L28.8923077,89.5589744 L26.1282051,87.9794872 L25.8769231,87.8358974 L26.0205128,87.5487179 L39.2307692,64.6820513 L39.2666667,64.6461538 L40.6307692,63.1384615 L40.8102564,62.9589744 L40.9897436,63.0666667 L41.1333333,63.1384615 L41.7076923,62.0974359 L41.8512821,61.8461538 L42.1384615,61.9897436 L43.3948718,62.7076923 L43.6461538,62.8512821 L43.5025641,63.1384615 Z M42.2102564,64.1435897 L42.8205128,63.0666667 L42.1025641,62.6717949 L41.4923077,63.7128205 L41.3487179,63.9641026 L41.0615385,63.8205128 L40.9179487,63.7128205 L39.7333333,65.0051282 L26.7025641,87.6205128 L28.9282051,88.8769231 L41.9589744,66.2974359 L42.4974359,64.6461538 L42.3179487,64.5384615 L42.0666667,64.3948718 L42.2102564,64.1435897 Z M41.7435897,37.8666667 L41.1333333,36.825641 L41.0615385,36.8974359 L40.8102564,37.0051282 L40.6666667,36.825641 L39.3025641,35.3538462 L39.2666667,35.3179487 L39.2666667,35.2820513 L26.0564103,12.4153846 L25.9128205,12.1641026 L26.1641026,11.9846154 L28.9282051,10.4051282 L29.1794872,10.2615385 L29.3230769,10.5128205 L42.5333333,33.3794872 L42.5692308,33.4153846 L42.5692308,33.4512821 L43.1794872,35.3897436 L43.2512821,35.6051282 L43.0358974,35.7487179 L42.9282051,35.7846154 L43.5384615,36.825641 L43.6820513,37.1128205 L43.4307692,37.2564103 L42.174359,37.974359 L41.8871795,38.1538462 L41.7435897,37.8666667 Z M41.5282051,36.2512821 L42.1384615,37.2923077 L42.8564103,36.8974359 L42.2461538,35.8205128 L42.1025641,35.5692308 L42.3538462,35.425641 L42.4974359,35.3179487 L41.9948718,33.6666667 L28.9641026,11.0871795 L26.7384615,12.3794872 L39.7692308,34.9230769 L40.9538462,36.2153846 L41.0974359,36.1435897 L41.3846154,36 L41.5282051,36.2512821 Z M64.5025641,48.9948718 L65.6871795,48.9948718 L65.6871795,48.8512821 L65.6871795,48.6 L65.9384615,48.5641026 L67.9128205,48.1333333 L67.9487179,48.1333333 L67.9846154,48.1333333 L94.4051282,48.1333333 L94.6923077,48.1333333 L94.6923077,48.4205128 L94.6923077,51.6153846 L94.6923077,51.9384615 L94.4051282,51.9384615 L67.9846154,51.9384615 L67.9487179,51.9384615 L67.9128205,51.9025641 L65.9384615,51.4717949 L65.6871795,51.4358974 L65.6871795,51.1846154 L65.6871795,51.0410256 L64.5025641,51.0410256 L64.1794872,51.0410256 L64.1794872,50.7538462 L64.1794872,49.2820513 L64.1794872,48.9948718 L64.5025641,48.9948718 Z M66.0102564,49.6051282 L64.7897436,49.6051282 L64.7897436,50.4307692 L66.0102564,50.4307692 L66.3333333,50.4307692 L66.3333333,50.7538462 L66.3333333,50.9333333 L68.0205128,51.2923077 L94.0820513,51.2923077 L94.0820513,48.7435897 L68.0205128,48.7435897 L66.3333333,49.1025641 L66.3333333,49.2820513 L66.3333333,49.6051282 L66.0102564,49.6051282 Z M49.9282051,47.5589744 C50.574359,47.5589744 51.1606836,47.7982908 51.6871795,48.2769231 C52.1658118,48.803419 52.4051282,49.3897436 52.4051282,50.0358974 L52.4051282,50.0358974 C52.4051282,50.7059831 52.1658118,51.2803421 51.6871795,51.7589744 C51.1846154,52.2615385 50.5982908,52.5128205 49.9282051,52.5128205 L49.9282051,52.5128205 C49.2341882,52.5128205 48.6598292,52.2615385 48.2051282,51.7589744 C47.7264959,51.3282051 47.4871795,50.7538462 47.4871795,50.0358974 L47.4871795,50.0358974 C47.4871795,49.3418805 47.7264959,48.7555554 48.2051282,48.2769231 C48.6837605,47.7982908 49.2581195,47.5589744 49.9282051,47.5589744 L49.9282051,47.5589744 Z M49.9282051,48.1692308 L49.9282051,48.1692308 C49.425641,48.1692308 48.9948718,48.3487179 48.6358974,48.7076923 C48.2769231,49.0666667 48.0974359,49.5094015 48.0974359,50.0358974 L48.0974359,50.0358974 C48.0974359,50.5863246 48.2769231,51.0170938 48.6358974,51.3282051 C48.9470087,51.6871795 49.377778,51.8666667 49.9282051,51.8666667 L49.9282051,51.8666667 C50.454701,51.8666667 50.8854703,51.6871795 51.2205128,51.3282051 C51.603419,50.9931626 51.7948718,50.5623933 51.7948718,50.0358974 L51.7948718,50.0358974 C51.7948718,49.5333333 51.603419,49.0905985 51.2205128,48.7076923 C50.8615385,48.3487179 50.4307692,48.1692308 49.9282051,48.1692308 L49.9282051,48.1692308 Z M49.9282051,44.5794872 C51.4119656,44.5794872 52.6923077,45.1179487 53.7692308,46.1948718 C54.822222,47.2478631 55.3487179,48.5282051 55.3487179,50.0358974 L55.3487179,50.0358974 C55.3487179,51.5196579 54.822222,52.8 53.7692308,53.8769231 C52.6683759,54.9299143 51.3880344,55.4564103 49.9282051,55.4564103 L49.9282051,55.4564103 C48.4444446,55.4564103 47.1641026,54.9299143 46.0871795,53.8769231 C45.0341882,52.8 44.5076923,51.5196579 44.5076923,50.0358974 L44.5076923,50.0358974 C44.5076923,48.5282051 45.0341882,47.2478631 46.0871795,46.1948718 C47.1641026,45.1179487 48.4444446,44.5794872 49.9282051,44.5794872 L49.9282051,44.5794872 Z M49.9282051,45.1897436 L49.9282051,45.1897436 C48.6358974,45.1897436 47.4991451,45.6683759 46.5179487,46.625641 C45.5846154,47.5589744 45.1179487,48.6957267 45.1179487,50.0358974 L45.1179487,50.0358974 C45.1179487,51.3521369 45.5846154,52.4769231 46.5179487,53.4102564 C47.4752139,54.3675216 48.6119656,54.8461538 49.9282051,54.8461538 L49.9282051,54.8461538 C51.2444446,54.8461538 52.3811964,54.3675216 53.3384615,53.4102564 C54.2717949,52.4769231 54.7384615,51.3521369 54.7384615,50.0358974 L54.7384615,50.0358974 C54.7384615,48.6957267 54.2717949,47.5589744 53.3384615,46.625641 C52.3333333,45.6683759 51.196581,45.1897436 49.9282051,45.1897436 L49.9282051,45.1897436 Z M49.9282051,40.4512821 C48.8991451,40.4512821 47.9418805,40.5948718 47.0564103,40.8820513 C46.4341882,39.5179487 45.6923077,37.8307692 44.8307692,35.8205128 C46.3623933,35.222222 48.0615385,34.9230769 49.9282051,34.9230769 C51.8427349,34.9230769 53.625641,35.2461538 55.2769231,35.8923077 L55.4205128,36.9333333 L55.2051282,38.3333333 L53.8769231,41.3128205 C52.6803421,40.7384615 51.3641026,40.4512821 49.9282051,40.4512821 L49.9282051,40.4512821 Z M55.3128205,42.1025641 L57.4307692,39.374359 L58.4358974,38.6205128 L59.4769231,38.3333333 C62.3726498,40.7264959 64.1555554,43.7658118 64.825641,47.4512821 C63.8923077,47.57094 62.9649574,47.6786323 62.0435897,47.774359 C61.122222,47.8700857 60.2068374,47.9658118 59.2974359,48.0615385 C58.77094,45.5487179 57.4427349,43.5623933 55.3128205,42.1025641 L55.3128205,42.1025641 Z M59.2974359,51.9384615 C60.2068374,52.0581195 61.122222,52.1717949 62.0435897,52.2794872 C62.9649574,52.3871795 63.8923077,52.4888887 64.825641,52.5846154 C64.203419,56.1982908 62.4683759,59.2017092 59.6205128,61.5948718 L58.6871795,61.2 L57.5384615,60.3025641 L55.6358974,57.6820513 C57.574359,56.2700857 58.7948718,54.3555554 59.2974359,51.9384615 L59.2974359,51.9384615 Z M54.2717949,58.5435897 L55.5282051,61.7025641 L55.6717949,62.9589744 L55.3846154,64.1076923 C53.6136754,64.777778 51.7948718,65.1128205 49.9282051,65.1128205 C48.1811964,65.1128205 46.4700857,64.8136754 44.7948718,64.2153846 C45.4649574,62.5880344 46.2068374,60.8888887 47.0205128,59.1179487 C48.025641,59.42906 48.9948718,59.5846154 49.9282051,59.5846154 C51.4598292,59.5846154 52.9076923,59.2376067 54.2717949,58.5435897 L54.2717949,58.5435897 Z M43.6102564,57.2153846 C42.3418805,58.9384615 41.2410256,60.422222 40.3076923,61.6666667 C37.4119656,59.2495728 35.6649574,56.2341882 35.0666667,52.6205128 L36.0358974,51.8666667 L37.3641026,51.3641026 L40.4153846,51.0410256 C40.654701,53.5299143 41.7196579,55.5880344 43.6102564,57.2153846 L43.6102564,57.2153846 Z M40.3794872,49.3538462 L37.1487179,48.9230769 L35.9641026,48.4205128 L35.0307692,47.4871795 C35.6769231,43.825641 37.4478631,40.7863246 40.3435897,38.3692308 C40.8940169,39.1111113 41.4384615,39.8529913 41.9769231,40.5948718 C42.5153846,41.3367523 43.0717949,42.0786323 43.6461538,42.8205128 C41.6358974,44.5675216 40.5470087,46.745299 40.3794872,49.3538462 L40.3794872,49.3538462 Z M69.6717949,53.1589744 C73.2854703,53.5897436 76.4205128,53.9905985 79.0769231,54.3615385 C81.7333333,54.7324784 83.3008549,55.0017092 83.7794872,55.1692308 C84.9760682,55.6 87.4769231,57.5145297 91.2820513,60.9128205 C90.4923077,63.9042733 89.4153846,66.7401708 88.0512821,69.4205128 L87.225641,68.8820513 L86.6153846,69.2410256 L86.0769231,69.2410256 L84.7128205,71.574359 L84.9641026,71.9692308 L85.0358974,72.7589744 L85.7179487,73.3692308 C82.6307692,78.1076923 78.7059831,82.1042733 73.9435897,85.3589744 L73.2615385,84.6410256 L72.4717949,84.5692308 L72.0769231,84.3179487 L69.7794872,85.7179487 L69.7794872,86.2564103 L69.4205128,86.9025641 L69.9948718,87.7641026 C64.6581195,90.6358974 58.9264959,92.2752139 52.8,92.6820513 L52.5487179,91.6051282 L51.9384615,91.1384615 L51.6871795,90.7076923 L49.0307692,90.7794872 L48.7435897,91.2461538 L48.1333333,91.6051282 L48.2051282,92.7538462 C44.9025641,92.6102564 41.7914528,92.1316241 38.8717949,91.3179487 C37.7948718,86.196581 37.3760682,83.0376067 37.6153846,81.8410256 C37.6871795,81.3623933 38.225641,79.8905985 39.2307692,77.425641 C40.2358974,74.9606836 41.4564103,72.0410256 42.8923077,68.6666667 C45.1418805,69.5521369 47.4871795,69.9948718 49.9282051,69.9948718 C53.3982908,69.9948718 56.6769231,69.1213677 59.7641026,67.374359 L60.0512821,67.8410256 C60.0991451,67.9846154 60.1948718,68.0085472 60.3384615,67.9128205 L60.6974359,67.6974359 C60.7692308,67.625641 60.7811964,67.5299143 60.7333333,67.4102564 L60.4820513,66.9435897 C65.6273502,63.7606836 68.6905985,59.1658118 69.6717949,53.1589744 L69.6717949,53.1589744 Z M37.4,65.5435897 C35.2461538,68.4393164 33.3495728,70.9341882 31.7102564,73.0282051 C30.07094,75.122222 29.0598292,76.3247861 28.6769231,76.6358974 C27.6717949,77.4974359 24.7162395,78.7179487 19.8102564,80.2974359 C17.7282051,78.2632477 15.8136754,75.9179487 14.0666667,73.2615385 L15.0717949,72.7589744 L15.0717949,72.0410256 L15.3230769,71.574359 L13.9948718,69.2410256 L13.5641026,69.2410256 L12.8102564,68.9538462 L11.7692308,69.2769231 C9.16068358,64.1555554 7.66495745,58.7470087 7.28205128,53.0512821 L8.39487179,52.8 L8.86153846,52.1538462 L9.29230769,51.9384615 L9.22051282,49.2461538 L8.75384615,48.9589744 L8.39487179,48.3487179 L7.21025641,48.4205128 C7.40170922,42.3418805 8.87350409,36.5504272 11.625641,31.0461538 L12.7384615,31.3692308 L13.4564103,31.0820513 L13.9230769,31.0820513 L15.2512821,28.7487179 L14.9641026,28.2461538 L14.9641026,27.5282051 L13.8871795,27.025641 C15.6102564,24.3692308 17.596581,21.9162395 19.8461538,19.6666667 C24.6803421,21.2461538 27.6239318,22.454701 28.6769231,23.2923077 C29.0358974,23.6273502 30.0410256,24.8478631 31.6923077,26.9538462 C33.3435897,29.0598292 35.2581195,31.5606836 37.4358974,34.4564103 C32.5538462,38.4051282 30.0649574,43.5025641 29.9692308,49.7487179 L29.574359,49.7487179 C29.4307692,49.7487179 29.3589744,49.8205128 29.3589744,49.9641026 L29.3948718,50.3948718 C29.3948718,50.5145297 29.454701,50.574359 29.574359,50.574359 L29.9692308,50.574359 C30.1367523,56.7008549 32.6136754,61.6905985 37.4,65.5435897 L37.4,65.5435897 Z M90.8871795,71.5384615 L92.9333333,72.0769231 L93.1128205,71.7538462 L93.9384615,71.8974359 C94.4888887,70.7726498 94.9435897,69.7914528 95.3025641,68.9538462 L94.9076923,68.3435897 L95.5897436,68.3435897 C96.0683759,67.0991451 96.4871795,65.9982908 96.8461538,65.0410256 L96.2717949,64.3948718 L97.0974359,64.2871795 C97.4803421,63.0427349 97.803419,61.9059831 98.0666667,60.8769231 L97.4923077,60.4102564 L98.2102564,60.1230769 C98.4974359,58.8068374 98.6888887,57.6581195 98.7846154,56.6769231 L98.1025641,56.2820513 L98.0307692,55.9948718 L95.4102564,54.774359 C95.5059831,53.9846154 95.577778,53.1350426 95.625641,52.225641 L96.4512821,52.225641 C96.6905985,52.225641 96.8102564,52.1059831 96.8102564,51.8666667 L96.8102564,51.5076923 L95.625641,51.5076923 C95.6495728,51.196581 95.6615385,50.7059831 95.6615385,50.0358974 C95.6615385,49.3658118 95.6495728,48.8632477 95.625641,48.5282051 L96.8102564,48.5282051 L96.8102564,48.1692308 C96.8102564,47.9538462 96.6905985,47.8461538 96.4512821,47.8461538 L95.625641,47.8461538 C95.5299143,46.5059831 95.4461538,45.5128205 95.374359,44.8666667 L97.8512821,43.7179487 L97.9230769,43.3948718 L98.6410256,43.0358974 C98.4974359,41.9589744 98.2940169,40.7982908 98.0307692,39.5538462 L97.3128205,39.3025641 L97.8512821,38.8 C97.5162395,37.5794872 97.1931626,36.454701 96.8820513,35.425641 L96.0564103,35.2820513 L96.6307692,34.6717949 C96.1521369,33.3316241 95.7213677,32.2307692 95.3384615,31.3692308 L94.6923077,31.3692308 L95.0871795,30.7230769 C94.6564103,29.7179487 94.1897436,28.7487179 93.6871795,27.8153846 L92.8615385,27.9589744 L92.6820513,27.6358974 L90.6717949,28.174359 L90.3128205,27.5282051 L90.8871795,27.2051282 L90.6717949,26.8461538 L90.0974359,27.1692308 L89.5589744,26.2 L90.1333333,25.8051282 L89.9179487,25.4820513 L89.3435897,25.8410256 L89.1641026,25.4820513 L90.5641026,23.8307692 L90.4923077,23.5076923 L90.9589744,22.8615385 C90.3606836,21.9282051 89.6905985,20.97094 88.9487179,19.9897436 L88.0512821,20.0974359 L88.4461538,19.4153846 C87.6085472,18.3623933 86.854701,17.4649574 86.1846154,16.7230769 L85.4307692,16.8666667 L85.6461538,16.1487179 C84.8324784,15.3350426 83.9829062,14.5213677 83.0974359,13.7076923 L82.3435897,14.0307692 L82.5230769,13.2051282 C81.9008549,12.6786323 80.9675216,11.9367523 79.7230769,10.9794872 L79.1846154,11.3384615 L79.1846154,10.5846154 C78.4188036,10.0581195 77.5333333,9.44786307 76.5282051,8.75384615 L75.8820513,9.32820513 L75.5589744,9.11282051 L74.0512821,10.6205128 L73.5846154,10.2974359 L73.9076923,9.75897436 L73.5487179,9.54358974 L73.1897436,10.1179487 L72.2564103,9.54358974 L72.5435897,8.93333333 L72.1846154,8.75384615 L71.8974359,9.32820513 L71.574359,9.18461538 L71.9692308,6.99487179 L71.7538462,6.74358974 L71.825641,5.95384615 C70.7487179,5.40341899 69.6837605,4.91282051 68.6307692,4.48205128 L67.9128205,5.02051282 L67.9128205,4.23076923 C66.6205128,3.70427332 65.5316241,3.30940153 64.6461538,3.04615385 L64.0358974,3.54871795 L63.8923077,2.79487179 C62.8632477,2.50769231 61.7145297,2.24444463 60.4461538,2.00512821 L59.9435897,2.65128205 L59.6564103,1.82564103 C58.3880344,1.61025641 57.2273502,1.44273486 56.174359,1.32307692 L55.8512821,1.8974359 L55.4923077,1.25128205 C54.5350426,1.13162411 53.4581195,1.04786307 52.2615385,1 L51.974359,1.78974359 L51.6153846,1.78974359 L51.0769231,3.8 L50.8974359,3.8 L50.9333333,3.15384615 L50.5025641,3.11794872 L50.4666667,3.83589744 L49.3897436,3.83589744 L49.3538462,3.18974359 L48.9589744,3.18974359 L48.9589744,3.83589744 L48.2769231,3.83589744 L47.7384615,1.82564103 L47.3794872,1.82564103 L47.0564103,1 C46.4341882,1.04786307 45.3572651,1.14358974 43.825641,1.28717949 L43.5025641,1.96923077 L43.1794872,1.35897436 C41.4564103,1.64615385 40.2837605,1.83760666 39.6615385,1.93333333 L39.4102564,2.75897436 L38.9076923,2.11282051 C38.0461538,2.28034206 36.8974359,2.56752155 35.4615385,2.97435897 L35.3538462,3.69230769 L34.7435897,3.18974359 C33.6427349,3.54871795 32.5418805,3.96752155 31.4410256,4.44615385 L31.4410256,5.23589744 L31.225641,5.45128205 L31.4769231,8.17948718 C30.4239318,8.65811948 29.6341882,9.04102564 29.1076923,9.32820513 L28.7487179,8.68205128 C28.6051282,8.49059847 28.4495728,8.45470104 28.2820513,8.57435897 L27.9589744,8.71794872 L28.4974359,9.65128205 C27.7316241,10.0581195 26.8700857,10.5487179 25.9128205,11.1230769 L25.374359,10.225641 L25.0871795,10.4051282 C24.8957267,10.5008549 24.8478631,10.6564103 24.9435897,10.8717949 L25.3025641,11.5179487 C24.9435897,11.7333333 24.1179487,12.2957267 22.825641,13.2051282 L20.7076923,11.7333333 L20.3846154,11.8051282 L19.7025641,11.4102564 C18.8170938,12.0564103 17.9196579,12.7982908 17.0102564,13.6358974 L17.1179487,14.425641 L16.4358974,14.174359 C15.574359,14.9880344 14.7606836,15.8376067 13.9948718,16.7230769 L14.2820513,17.4769231 L13.4564103,17.3333333 C12.9299143,17.9316241 12.1880344,18.8529913 11.2307692,20.0974359 L11.5897436,20.6358974 L10.8358974,20.6 C10.1897436,21.5094015 9.57948718,22.4068374 9.00512821,23.2923077 L9.54358974,23.9384615 L9.36410256,24.2615385 L10.8358974,25.7333333 L10.4410256,26.3435897 L9.86666667,26.0205128 L9.65128205,26.3794872 L10.225641,26.7025641 L9.65128205,27.6717949 L9.07692308,27.3846154 L8.86153846,27.7435897 L9.47179487,28.0307692 L9.25641026,28.3538462 L7.1025641,27.9948718 L6.88717949,28.2102564 L6.06153846,28.1384615 C5.65470104,28.9042733 5.16410256,29.9692308 4.58974359,31.3333333 L5.12820513,32.0512821 L4.33846154,32.0153846 C3.85982924,33.0923077 3.46495745,34.2051282 3.15384615,35.3538462 L3.62051282,35.9282051 L2.9025641,36.0717949 C2.66324768,36.9333333 2.38803437,38.0700857 2.07692308,39.4820513 L2.75897436,40.0205128 L1.93333333,40.3076923 C1.71794872,41.4085472 1.53846154,42.5692308 1.39487179,43.7897436 L2.00512821,44.1128205 L1.32307692,44.4358974 C1.25128205,45.1299143 1.16752155,46.2068374 1.07179487,47.6666667 L1.8974359,47.9538462 L1.8974359,48.3487179 L3.90769231,48.8871795 L3.90769231,49.4615385 L3.26153846,49.4615385 L3.22564103,49.8923077 L3.90769231,49.8923077 L3.90769231,50.9692308 L3.22564103,51.0410256 L3.26153846,51.4358974 L3.90769231,51.4 L3.90769231,51.7589744 L1.82564103,52.5128205 L1.75384615,52.8358974 L1,53.1589744 C1.02393181,54.3555554 1.13162411,55.5162395 1.32307692,56.6410256 L2.14871795,56.9641026 L1.46666667,57.3589744 C1.61025641,58.6991451 1.8136754,59.8598292 2.07692308,60.8410256 L2.79487179,61.1282051 L2.25641026,61.5948718 C2.54358974,62.8393164 2.8786323,63.9641026 3.26153846,64.9692308 L4.08717949,65.1128205 L3.51282051,65.7230769 C3.91965794,66.9196579 4.35042717,68.0205128 4.80512821,69.025641 L5.45128205,68.9897436 L5.09230769,69.6358974 C5.52307692,70.6410256 5.98974359,71.6102564 6.49230769,72.5435897 L7.31794872,72.4 L7.4974359,72.7230769 L9.54358974,72.1846154 L9.61538462,72.3282051 L9.04102564,72.6512821 L9.22051282,73.0102564 L9.83076923,72.6871795 L10.4051282,73.6564103 L9.83076923,73.9794872 L10.0461538,74.3384615 L10.5846154,74.0153846 L10.9435897,74.5897436 L9.47179487,76.0974359 L9.65128205,76.4205128 L9.11282051,77.0666667 C9.54358974,77.7606836 10.1538462,78.6461538 10.9435897,79.7230769 L11.6974359,79.6871795 L11.374359,80.225641 C12.0923077,81.2307692 12.8341882,82.1521369 13.6,82.9897436 L14.425641,82.8461538 L14.1384615,83.6 C15,84.5811964 15.8136754,85.4188036 16.5794872,86.1128205 L17.2974359,85.8974359 L17.1538462,86.6512821 C17.9675216,87.4170938 18.8769231,88.1589744 19.8820513,88.8769231 L20.5641026,88.4820513 L20.8871795,88.5538462 L23.0769231,87.0102564 C24.0341882,87.6803421 24.7641026,88.17094 25.2666667,88.4820513 L24.9076923,89.0923077 C24.7641026,89.3076923 24.8119656,89.4752139 25.0512821,89.5948718 L25.3384615,89.7384615 L25.8410256,88.8410256 C26.7025641,89.3914528 27.5641026,89.8940169 28.425641,90.3487179 L27.9230769,91.2461538 L28.2461538,91.425641 C28.4136754,91.5692308 28.5692308,91.5213677 28.7128205,91.2820513 L29.0717949,90.6717949 C29.6461538,90.9829062 30.5555554,91.425641 31.8,92 L31.5487179,94.5487179 L31.8,94.7641026 L31.7641026,95.5538462 C32.7213677,95.9846154 33.8341882,96.3914528 35.1025641,96.774359 L35.6769231,96.2717949 L35.8564103,96.9897436 C36.9333333,97.3487179 38.0700857,97.6358974 39.2666667,97.8512821 L39.7692308,97.2051282 L40.0205128,98.0307692 C41.2410256,98.2700857 42.4136754,98.4495728 43.5384615,98.5692308 L43.8615385,97.9948718 L44.2205128,98.6410256 C45.1538462,98.7846154 46.2188036,98.8683759 47.4153846,98.8923077 L47.7025641,98.1025641 L48.0974359,98.1025641 L48.6358974,96.0923077 L49.3538462,96.1282051 L49.3538462,96.774359 L49.7487179,96.774359 L49.7846154,96.1282051 L50.8974359,96.1282051 L50.9333333,96.8102564 L51.3282051,96.774359 L51.2923077,96.1282051 L51.6871795,96.1282051 L52.4410256,98.174359 L52.7641026,98.2820513 L53.0871795,99 C54.2119656,98.9760682 55.3726498,98.8683759 56.5692308,98.6769231 L56.9282051,97.8512821 L57.3230769,98.5692308 C58.3760682,98.4495728 59.5247861,98.2461538 60.7692308,97.9589744 L61.0564103,97.2051282 L61.5230769,97.7794872 C62.8153846,97.4205128 63.9521369,97.0854703 64.9333333,96.774359 L65.0410256,95.9487179 L65.6871795,96.5230769 C66.8119656,96.1401708 67.9128205,95.6974359 68.9897436,95.1948718 L68.9538462,94.5487179 L69.6,94.9435897 C70.5572651,94.5128205 71.5264959,94.0461538 72.5076923,93.5435897 L72.3641026,92.7179487 L72.6871795,92.5384615 L72.1128205,90.4923077 L72.6512821,90.2410256 L72.9384615,90.7794872 L73.3333333,90.5641026 L73.0102564,90.025641 L73.9435897,89.4512821 L74.3384615,90.025641 L74.6615385,89.774359 L74.3025641,89.2717949 L74.625641,89.0923077 L76.3128205,90.4923077 L76.6358974,90.4205128 L77.2820513,90.8871795 C78.2871795,90.2649574 79.2444446,89.5829062 80.1538462,88.8410256 L80.0461538,87.9435897 L80.7282051,88.374359 C81.3264959,87.9196579 82.2239318,87.1658118 83.4205128,86.1128205 L83.2769231,85.3589744 L83.9948718,85.574359 C84.545299,85.0239318 85.3470087,84.174359 86.4,83.025641 L86.1128205,82.2358974 L86.9384615,82.4153846 C87.8,81.3863246 88.5299143,80.4649574 89.1282051,79.6512821 L88.7692308,79.0769231 L89.5230769,79.1128205 C90.1692308,78.2273502 90.7794872,77.3299143 91.3538462,76.4205128 L90.8153846,75.774359 L90.9948718,75.4512821 L89.5230769,73.9794872 L89.5948718,73.8 L90.1333333,74.1948718 L90.3846154,73.8358974 L89.8102564,73.4769231 L90.3487179,72.5076923 L90.9230769,72.8307692 L91.1384615,72.4358974 L90.5641026,72.1487179 L90.8871795,71.5384615 Z" sketch:type="MSShapeGroup"/></g></g><text x="0" y="115" fill="#000000" font-size="5px" font-weight="bold" font-family="'Helvetica Neue', Helvetica, Arial-Unicode, Arial, Sans-serif">Created by Chris</text><text x="0" y="120" fill="#000000" font-size="5px" font-weight="bold" font-family="'Helvetica Neue', Helvetica, Arial-Unicode, Arial, Sans-serif">from the Noun Project</text></svg>