<?xml version="1.0" encoding="utf-8"?>
<svg version="1.1" x="0px" y="0px" viewBox="0 0 90.297 62.192" enable-background="new 0 0 100 100" xmlns="http://www.w3.org/2000/svg">
  <path d="M 88.747 23.563 L 90.124 23.563 C 87.347 10.032 77.228 0 65.164 0 C 55.34 0 46.805 6.654 42.474 16.432 L 31.824 15.724 L 29.734 8.955 L 37.268 8.955 C 38.959 8.955 40.329 7.585 40.329 5.894 C 40.329 4.203 38.959 2.833 37.268 2.833 L 0 2.833 L 0 8.955 L 19.097 8.955 L 29.002 28.331 L 27.391 28.331 L 27.391 28.394 L 27.391 33.695 L 27.391 33.758 L 29.002 33.758 L 19.097 53.215 L 0 53.215 L 0 59.337 L 37.268 59.337 C 38.959 59.337 40.329 57.967 40.329 56.276 C 40.329 56.262 40.325 56.249 40.325 56.235 C 40.325 56.221 40.329 56.208 40.329 56.194 C 40.329 54.504 38.959 53.133 37.268 53.133 L 29.771 53.215 L 31.824 46.446 L 42.474 45.738 L 42.388 45.662 L 42.464 45.657 C 46.792 55.448 55.332 62.113 65.164 62.113 C 77.226 62.113 87.345 52.083 90.123 38.555 L 88.747 38.555 L 88.747 23.563 Z M 38.118 31.045 C 38.118 31.034 38.121 31.024 38.121 31.013 C 38.121 29.672 37.134 28.571 35.849 28.372 L 35.849 28.331 L 35.602 28.331 L 34.259 23.85 L 40.149 23.85 C 39.693 26.164 39.445 28.575 39.445 31.057 C 39.445 33.531 39.692 35.933 40.144 38.24 L 34.259 38.24 L 35.602 33.759 L 35.849 33.759 L 35.849 33.717 C 37.134 33.518 38.121 32.417 38.121 31.076 C 38.121 31.066 38.118 31.056 38.118 31.045 Z"/>
</svg>