<svg xmlns="http://www.w3.org/2000/svg" xmlns:xlink="http://www.w3.org/1999/xlink" xmlns:sketch="http://www.bohemiancoding.com/sketch/ns" viewBox="0 0 100 97.5" version="1.1" x="0px" y="0px"><title>Artboard</title><desc>Created with Sketch.</desc><g stroke="none" stroke-width="1" fill="none" fill-rule="evenodd" sketch:type="MSPage"><g sketch:type="MSArtboardGroup" fill="#000000"><path d="M50.1964155,-9.67040816 C40.4035322,-9.67040816 32.0343116,-6.80521251 25.0887493,-1.07482993 C18.1431871,4.65555265 14.6704082,11.5475086 14.6704082,19.6010204 C14.6704082,29.1318056 19.2571007,36.8279173 28.4304814,42.6893511 L28.6806646,40.9738095 L28.716405,40.7593668 L28.9308477,40.7951073 L33.2197017,41.9030612 L33.3626635,41.9388017 L33.3626635,42.0817635 L33.3626635,42.9037938 L33.5413658,42.9037938 L33.5413658,45.4056253 C38.7118161,47.6930141 44.2158454,48.8367085 50.0534537,48.8367085 L50.0534537,44.9767399 L50.3751177,44.9767399 L50.3751177,48.8367085 C56.1889005,48.8367085 61.6929298,47.6930141 66.8872057,45.4056253 L66.8872057,42.9037938 L67.0659079,42.9037938 L67.0659079,42.0817635 L67.0659079,41.9388017 L67.2088697,41.9030612 L71.4977237,40.7951073 L71.7121664,40.7593668 L71.7479069,40.9738095 L71.99809,42.6893511 C81.1714751,36.8279173 85.7581633,29.1318056 85.7581633,19.6010204 C85.7581633,11.5476569 82.279429,4.65570971 75.3219519,-1.07482993 C68.3644747,-6.80521251 59.9892988,-9.67040816 50.1964155,-9.67040816 L50.1964155,-9.67040816 Z M73.2490058,85.1490058 C73.1775249,80.8601518 73.1417844,76.3449423 73.1417844,71.6033752 C73.1417844,66.8618081 72.9273417,63.6094271 72.4984563,61.8462323 C72.4269754,61.7747514 72.3674051,61.6973131 72.3197541,61.6139194 C72.272103,61.5305258 72.2244433,61.4411746 72.1767923,61.345866 C71.5811152,60.2498248 71.2237107,59.1537858 71.1045788,58.0577446 L71.0688383,57.8433019 L71.283281,57.8433019 L72.5699372,57.8433019 L72.5699372,57.1999738 L72.1410518,57.1999738 L72.0695709,55.6631345 L72.4627159,55.6631345 C72.5818478,54.9959787 72.438886,54.6385742 72.0338305,54.590921 L71.99809,53.876112 C71.9027792,51.2551442 71.009268,49.9446625 69.3175563,49.9446625 C67.6496657,49.9446625 66.7561544,51.2551442 66.6370225,53.876112 L66.6370225,54.6266614 C66.3749288,54.7933222 66.2677074,55.138814 66.3153585,55.6631345 L66.5655416,55.6631345 L66.5298012,57.1999738 L66.2081371,57.1999738 L66.2081371,57.8433019 L67.5662742,57.8433019 L67.7807169,57.8433019 L67.7449765,58.0577446 C67.6258445,59.1061304 67.2565207,60.2021716 66.6370225,61.345866 C66.5893715,61.4173469 66.4583203,61.6556173 66.2438776,62.060675 C65.7911623,64.2765829 65.5588494,67.648098 65.5469388,72.1752224 C65.5350282,76.7023457 65.4933281,81.0269402 65.4218472,85.1490058 C65.3503663,86.9836826 66.6489331,87.9010204 69.3175563,87.9010204 C71.9623496,87.9010204 73.2728356,86.9836826 73.2490058,85.1490058 Z M68.81719,53.0183412 L69.9966248,53.0183412 C70.0919356,53.0183412 70.1395866,53.0659944 70.1395866,53.161303 C70.1395866,53.2566116 70.0919356,53.3042648 69.9966248,53.3042648 L68.81719,53.3042648 C68.7218792,53.3042648 68.6742282,53.2566116 68.6742282,53.161303 C68.6742282,53.0659944 68.7218792,53.0183412 68.81719,53.0183412 L68.81719,53.0183412 Z M68.6742282,53.5901884 L70.1395866,53.5901884 C70.2825484,53.5901884 70.3540293,53.6497565 70.3540293,53.7688906 C70.3540293,53.9118524 70.2825484,53.9833333 70.1395866,53.9833333 L68.6742282,53.9833333 C68.5550962,53.9833333 68.4955259,53.9118524 68.4955259,53.7688906 C68.4955259,53.6497565 68.5550962,53.5901884 68.6742282,53.5901884 L68.6742282,53.5901884 Z M68.6027473,54.2692569 L70.246808,54.2692569 C70.4374208,54.2692569 70.5327316,54.3645655 70.5327316,54.5551805 C70.5327316,54.7696232 70.4374208,54.8768446 70.246808,54.8768446 L68.6027473,54.8768446 C68.3883046,54.8768446 68.2810832,54.7696232 68.2810832,54.5551805 C68.2810832,54.3645655 68.3883046,54.2692569 68.6027473,54.2692569 L68.6027473,54.2692569 Z M69.9251439,77.5005495 C70.0919356,77.5005495 70.1991569,77.595857 70.246808,77.7864731 L70.3182889,80.002381 C70.3182889,80.1929965 70.2229781,80.2883046 70.0323653,80.2883046 C69.8417524,80.3359583 69.7464417,80.2406508 69.7464417,80.002381 L69.6392203,77.8222135 C69.6392203,77.6077708 69.7345311,77.5005495 69.9251439,77.5005495 L69.9251439,77.5005495 Z M68.7814495,77.5005495 C68.6146578,77.5005495 68.5074365,77.595857 68.4597855,77.7864731 L68.3883046,80.002381 C68.3883046,80.1929965 68.4836153,80.2883046 68.6742282,80.2883046 C68.8886709,80.3359583 68.9958922,80.2406508 68.9958922,80.002381 L69.0673731,77.8222135 C69.0673731,77.6077708 68.9720623,77.5005495 68.7814495,77.5005495 L68.7814495,77.5005495 Z M71.8193878,54.5551805 C71.2475406,54.4598719 70.9556573,53.9118524 70.9437467,52.9111198 C70.9318362,51.9103872 70.4255102,51.4100209 69.4247776,51.4100209 C68.3525641,51.4100209 67.7926275,51.9342149 67.7449765,52.9826007 C67.6973254,54.0309865 67.387572,54.5670933 66.8157248,54.590921 L66.8514652,53.9118524 C66.9229461,51.4100209 67.7449765,50.1591052 69.3175563,50.1591052 C70.8663062,50.1591052 71.6883365,51.4100209 71.7836473,53.9118524 L71.8193878,54.5551805 Z M72.2840136,60.7025379 L72.1767923,58.2007064 L71.4977237,58.2007064 C71.5930345,58.9393431 71.8551282,59.7732862 72.2840136,60.7025379 L72.2840136,60.7025379 Z M66.4940607,58.2007064 L66.3510989,61.1314233 C66.8514652,60.2021716 67.1969591,59.2252667 67.387572,58.2007064 L66.4940607,58.2007064 Z M35.0067242,85.1490058 C34.9114178,81.0269402 34.8578071,76.7023457 34.8458922,72.1752224 C34.8339773,67.648098 34.6135793,64.2765829 34.1846939,62.060675 C34.113213,61.9653664 33.9702512,61.7270982 33.7558085,61.345866 C33.1371654,60.1783439 32.7678459,59.0823049 32.6478545,58.0577446 L32.6478545,57.8433019 L32.8265568,57.8433019 L34.2204343,57.8433019 L34.2204343,57.1999738 L33.8987703,57.1999738 L33.8630298,55.6631345 L34.113213,55.6631345 C34.113213,55.115115 34.0059916,54.7696232 33.7915489,54.6266614 L33.7915489,53.876112 C33.6485871,51.2551442 32.7550759,49.9446625 31.1110152,49.9446625 C29.3954736,49.9446625 28.5019623,51.2551442 28.4304814,53.876112 L28.394741,54.590921 C27.9658556,54.6385742 27.8228938,54.9959787 27.9658556,55.6631345 L28.3590005,55.6631345 L28.2875196,57.1999738 L27.8586342,57.1999738 L27.8586342,57.8433019 L29.1452904,57.8433019 L29.3597331,57.8433019 L29.3239927,58.0577446 C29.1810309,59.1776113 28.8117114,60.2736525 28.2160387,61.345866 C28.1922132,61.3935192 28.0969024,61.5603087 27.9301151,61.8462323 C27.4535743,63.6094271 27.2212614,66.8618081 27.2331763,71.6033752 C27.2450913,76.3449434 27.2272211,80.8601534 27.1795657,85.1490058 C27.1317183,86.9836826 28.4422,87.9010204 31.1110152,87.9010204 C33.7558085,87.9010204 35.0543796,86.9836826 35.0067242,85.1490058 Z M31.575641,53.0183412 C31.6947773,53.0183412 31.7543433,53.0659944 31.7543433,53.161303 C31.7543433,53.2566116 31.6947773,53.3042648 31.575641,53.3042648 L30.3962062,53.3042648 C30.3008998,53.3042648 30.2532444,53.2566116 30.2532444,53.161303 C30.2532444,53.0659944 30.3008998,53.0183412 30.3962062,53.0183412 L31.575641,53.0183412 Z M31.7186028,53.5901884 C31.8615646,53.5901884 31.9330455,53.6497565 31.9330455,53.7688906 C31.9330455,53.9118524 31.8615646,53.9833333 31.7186028,53.9833333 L30.2889848,53.9833333 C30.146023,53.9833333 30.0745421,53.9118524 30.0745421,53.7688906 C30.0745421,53.6497565 30.146023,53.5901884 30.2889848,53.5901884 L31.7186028,53.5901884 Z M31.8258242,54.2692569 C32.0402669,54.2692569 32.1474882,54.3645655 32.1474882,54.5551805 C32.1474882,54.7696232 32.0402669,54.8768446 31.8258242,54.8768446 L30.1817635,54.8768446 C29.9673208,54.8768446 29.8600994,54.7696232 29.8600994,54.5551805 C29.8600994,54.3645655 29.9673208,54.2692569 30.1817635,54.2692569 L31.8258242,54.2692569 Z M30.5034275,77.5005495 C30.2889848,77.5005495 30.1817635,77.595857 30.1817635,77.7864731 L30.1102826,80.002381 C30.0626272,80.1929965 30.146023,80.2883046 30.3604657,80.2883046 C30.5510829,80.3359583 30.6702148,80.2406508 30.7178702,80.002381 L30.7893511,77.8222135 C30.7893511,77.6077708 30.6940447,77.5005495 30.5034275,77.5005495 L30.5034275,77.5005495 Z M31.6113815,77.5005495 C31.8258242,77.5005495 31.9330455,77.595857 31.9330455,77.7864731 L32.0402669,80.002381 C32.0402669,80.1929965 31.9449605,80.2883046 31.7543433,80.2883046 C31.5399006,80.3359583 31.4326792,80.2406508 31.4326792,80.002381 L31.3611983,77.8222135 C31.3135429,77.6077708 31.3969388,77.5005495 31.6113815,77.5005495 L31.6113815,77.5005495 Z M28.6091837,54.5551805 L28.6091837,53.9118524 C28.6806646,51.4100209 29.5146099,50.1591052 31.1110152,50.1591052 C32.6597695,50.1591052 33.4817998,51.4100209 33.5771062,53.9118524 L33.6128467,54.590921 C33.0409995,54.5670933 32.7252907,54.0309865 32.6657248,52.9826007 C32.6061588,51.9342149 32.0521818,51.4100209 31.0037938,51.4100209 C30.0030612,51.4100209 29.49078,51.9103872 29.4669545,52.9111198 C29.443129,53.9118524 29.1572054,54.4598719 28.6091837,54.5551805 L28.6091837,54.5551805 Z M28.1445578,60.7025379 C28.5496177,59.7732862 28.8117114,58.9393431 28.9308477,58.2007064 L28.2517792,58.2007064 L28.1445578,60.7025379 Z M33.9345107,58.2007064 L33.0409995,58.2007064 C33.2077868,59.201439 33.5413658,60.1783439 34.0417321,61.1314233 L33.9345107,58.2007064 Z M60.7755887,47.9074568 C60.5849759,47.9551122 60.400314,48.0027676 60.2216117,48.0504186 C60.0429095,48.098074 59.8701669,48.1338145 59.7033752,48.15764 C57.5589482,50.0399689 55.998279,51.6006381 55.0213762,52.8396389 C53.3058346,55.0317191 52.3527531,57.3310229 52.1621402,59.7375458 L50.6967818,79.0731293 C52.4361533,78.4298012 54.0563841,77.1371886 55.557483,75.1952904 C57.0585819,73.2533923 58.2618466,70.1022763 59.1672684,65.7419414 C59.6199837,63.5498612 60.1143904,60.9586786 60.6504971,57.9683935 C61.1866039,54.9781085 61.228304,51.6244636 60.7755887,47.9074568 L60.7755887,47.9074568 Z M50.0534537,78.894427 L50.0534537,49.2298535 C47.1942177,49.206028 44.3349817,48.9081894 41.4757457,48.3363422 C43.2865937,49.9565774 44.6923862,51.3861954 45.6931188,52.6251962 C47.4324859,54.8649318 48.409393,57.2238015 48.6238357,59.7018053 L50.0534537,78.894427 Z M50.3751177,49.2298535 L50.3751177,78.894427 L51.8047357,59.7018053 C51.9476975,57.2714547 52.9246003,54.912585 54.7354526,52.6251962 C55.6170533,51.4815018 57.0228414,50.0518838 58.9528257,48.3363422 C56.0697599,48.9081894 53.2105239,49.206028 50.3751177,49.2298535 L50.3751177,49.2298535 Z M48.2664312,59.7375458 C48.0519885,57.3310534 47.0989113,55.0317519 45.4071952,52.8396389 C44.4064626,51.6007079 42.8457977,50.0400431 40.7251962,48.15764 C40.6070329,48.1338145 40.3806752,48.0861591 40.0461277,48.0146782 L39.6172423,47.9074568 C39.1645314,51.6244636 39.2062271,54.9781085 39.7423339,57.9683935 C40.2784406,60.9586786 40.7847622,63.5498612 41.261303,65.7419414 C42.1426506,70.1022763 43.3280408,73.2533923 44.8174778,75.1952904 C46.3066617,77.1371886 47.9328522,78.4298012 49.6960492,79.0731293 L48.2664312,59.7375458 Z M58.9528257,68.2437729 C58.1433255,71.2697973 57.0830226,73.7120617 55.7719257,75.5705651 C54.3661376,77.4767228 52.6386767,78.7991195 50.5895604,79.5377551 L50.5002093,79.6271062 L50.4465986,79.6807169 C50.3512879,79.7283707 50.2678964,79.7521978 50.1964155,79.7521978 C50.1487645,79.7521978 50.0772836,79.7283707 49.9819728,79.6807169 C49.9343174,79.6807169 49.898577,79.6628467 49.8747514,79.6271062 C49.8509259,79.5913658 49.8270961,79.5615823 49.8032705,79.5377551 C47.7064989,78.7752918 45.9909573,77.4528952 44.6566457,75.5705651 C43.346164,73.7835426 42.2858611,71.3412782 41.4757457,68.2437729 C40.8085921,70.316719 38.723731,71.48424 35.2211669,71.746337 C35.2688223,74.5102655 35.2926478,76.6785191 35.2926478,78.2510989 C35.3164733,79.3233124 35.3283883,80.9197194 35.3283883,83.0403192 C37.8778752,83.1118001 41.249388,82.7543956 45.4429356,81.9681057 C46.1577446,81.8489711 46.9261643,81.8430141 47.7481947,81.9502355 C48.570225,82.0574568 49.3863001,82.1348947 50.1964155,82.1825484 C51.0065353,82.1348947 51.822606,82.0574568 52.6446363,81.9502355 C53.4666667,81.8430141 54.2350863,81.8489711 54.9498953,81.9681057 C59.1431244,82.7543956 62.5146373,83.1118001 65.0644427,83.0403192 C65.0882726,81.9919329 65.1001832,80.3955259 65.1001832,78.2510989 C65.1478342,75.2965619 65.1835746,73.1283083 65.2074045,71.746337 C61.6810105,71.48424 59.5961538,70.316719 58.9528257,68.2437729 L58.9528257,68.2437729 Z M48.9454997,80.5027473 C49.2075978,80.550401 49.3267298,80.7291033 49.3029042,81.038854 C49.2552489,81.3247776 49.0884615,81.4439123 48.8025379,81.3962585 L46.2292255,80.9673731 C45.9194764,80.943546 45.7884252,80.7767576 45.8360806,80.4670068 C45.9075615,80.2049731 46.0743488,80.0858384 46.3364469,80.1096023 L48.9454997,80.5027473 Z M51.590293,81.3962585 C51.3281993,81.4439123 51.1614076,81.3247776 51.0899267,81.038854 C51.0422757,80.7291033 51.1733182,80.550401 51.4830717,80.5027473 L54.0563841,80.1096023 C54.3423077,80.0857752 54.5090994,80.2049104 54.5567504,80.4670068 C54.5805803,80.7767286 54.4614396,80.9435176 54.1993459,80.9673731 L51.590293,81.3962585 Z M49.3386447,21.7811879 L49.3386447,21.7633176 L49.3386447,21.709707 C49.2195084,21.709707 49.1480275,21.6739665 49.124202,21.6024856 C49.0527211,21.5786601 49.0169806,21.4952643 49.0169806,21.3523025 L49.0169806,21.3523025 L49.0169806,20.9234171 C49.0169806,20.8281106 49.0527211,20.7447148 49.124202,20.6732339 C49.1956829,20.601753 49.2790787,20.5660126 49.3743851,20.5660126 L49.3743851,20.5660126 C49.3982107,20.5660126 49.4816065,20.601753 49.6245683,20.6732339 C49.6245683,20.6970594 49.6305236,20.7089744 49.6424385,20.7089744 L49.6603087,20.7089744 C49.7317896,20.4945317 49.9224068,20.3873103 50.2321559,20.3873103 C50.4942497,20.3873103 50.6729519,20.6374935 50.7682627,21.1378598 C50.7682627,21.2331662 50.7920926,21.3523025 50.8397436,21.4952643 C50.8873946,21.6382261 50.9231351,21.7216219 50.9469649,21.7454474 C51.0184458,22.1028519 51.0541863,22.2696392 51.0541863,22.2458137 C51.0541863,22.2696392 51.0422757,22.2934691 51.0184458,22.3172946 C51.0184458,22.5317373 50.9350544,22.7223545 50.7682627,22.8891418 C50.5322413,23.12741 50.3297092,23.2227208 50.160675,23.1750654 L50.160675,23.1750654 L50.1249346,23.1750654 C49.9819728,23.1750654 49.8628365,23.139325 49.7675301,23.0678441 L49.7317896,23.0678441 L49.7317896,23.139325 C49.7317896,23.1631505 49.6960492,23.2465463 49.6245683,23.3895081 C49.5292619,23.4371635 49.445866,23.460989 49.3743851,23.460989 L49.3743851,23.460989 C49.2558029,23.460989 49.1724071,23.4371635 49.124202,23.3895081 C49.0527211,23.3180272 49.0169806,23.2346314 49.0169806,23.139325 L49.0169806,23.139325 L49.0169806,22.6746991 C49.0169806,22.5793927 49.0527211,22.4959969 49.124202,22.424516 L49.1599424,22.4066457 C49.1832182,22.3947308 49.2070437,22.3768606 49.2314233,22.3530351 L49.2314233,22.2279435 L49.2314233,22.1028519 C49.2314233,22.0075455 49.2671638,21.9003241 49.3386447,21.7811879 L49.3386447,21.7811879 Z M49.6960492,22.5317373 C49.7437046,22.6508736 49.8270961,22.7223545 49.9462323,22.74618 C49.9938877,22.7938354 50.0653643,22.8176609 50.160675,22.8176609 L50.160675,22.8176609 C50.2559858,22.8176609 50.3632072,22.7580949 50.4823391,22.6389587 C50.5299901,22.6389587 50.55382,22.6151331 50.55382,22.5674778 C50.4346881,22.686614 50.2917263,22.74618 50.1249346,22.74618 L50.1249346,22.74618 C50.0534537,22.74618 49.9700579,22.7223545 49.8747514,22.6746991 C49.8270961,22.6508736 49.7675301,22.6032182 49.6960492,22.5317373 L49.6960492,22.5317373 Z M50.3393773,20.8519362 C50.2917263,20.7804553 50.2559858,20.7447148 50.2321559,20.7447148 C50.113024,20.7447148 50.0415388,20.7804553 50.0177132,20.8519362 C50.0415388,20.8281106 50.1011047,20.8161957 50.1964155,20.8161957 C50.2678964,20.8161957 50.3155474,20.8281106 50.3393773,20.8519362 L50.3393773,20.8519362 Z M50.1964155,21.6739665 C50.2440665,21.6739665 50.279807,21.6858814 50.3036368,21.709707 L50.3036368,21.6918367 L50.3036368,21.6739665 C50.2559858,21.5786601 50.2321559,21.4952643 50.2321559,21.4237834 C50.2321559,21.2808216 50.2202454,21.2093407 50.1964155,21.2093407 C50.1487645,21.2093407 50.1011047,21.256996 50.0534537,21.3523025 L50.0534537,21.4416536 L50.0534537,21.5310047 L50.0534537,21.5488749 L50.0534537,21.5667452 C50.0057983,21.6620516 49.9819728,21.7216219 49.9819728,21.7454474 C49.9581473,21.7692729 49.9402771,21.7931028 49.9283621,21.8169283 L49.9104919,21.8526688 L49.9283621,21.8347985 L49.9462323,21.8169283 C50.0415388,21.7216219 50.1249346,21.6739665 50.1964155,21.6739665 L50.1964155,21.6739665 Z M50.1964155,13.5251439 L50.1964155,13.5251439 C47.8375458,13.5251439 45.8479955,14.0969911 44.2277603,15.2406855 C42.6075251,16.3605544 41.7974097,17.7186915 41.7974097,19.3150968 C41.7974097,20.2920039 42.1190738,21.1736002 42.7624019,21.9598901 C42.7385764,21.9340359 42.8577083,22.0889126 43.1198064,22.424516 C43.3104236,22.6151331 43.4652959,22.7580949 43.5844322,22.8534014 L43.5844322,22.8534014 C44.1562794,23.520555 44.5494244,24.0566617 44.7638671,24.4617216 C45.1212716,25.1765306 45.3237993,25.8794247 45.3714547,26.5704082 C45.4191101,27.761758 45.2523184,29.4772996 44.8710884,31.717033 C44.5613393,33.837425 44.3945476,35.1359962 44.3707221,35.612742 C44.6566457,34.9694139 44.9902247,34.5047881 45.3714547,34.2188645 C45.538242,34.053735 45.7169443,33.9226882 45.9075615,33.8257195 L54.5210099,33.8257195 C55.2119891,34.2546049 55.7123554,34.8502776 56.0221088,35.612742 C55.9029769,34.4213922 55.7361852,33.1228255 55.5217425,31.717033 C55.1405082,29.3819888 54.9856358,27.6783621 55.0571167,26.6061486 L55.0571167,26.5704082 C55.0809466,25.8318914 55.2715594,25.1289974 55.6289639,24.4617216 C55.8672365,24.0090107 56.272292,23.4729039 56.8441392,22.8534014 L56.8441392,22.8534014 C57.3445055,22.3768606 57.7257399,21.9241497 57.9878336,21.4952643 C58.0116635,21.4476089 58.0354846,21.4059131 58.0593145,21.3701727 L58.1665358,21.2093407 C58.4762893,20.5660126 58.6311617,19.9345994 58.6311617,19.3150968 L58.6311617,19.3150968 C58.6311617,17.7186915 57.8091313,16.3605544 56.1650706,15.2406855 C54.5448398,14.0969911 52.5552852,13.5251439 50.1964155,13.5251439 L50.1964155,13.5251439 Z M46.0147828,34.2188645 C45.4429356,34.6949951 45.1331865,35.2430168 45.0855311,35.8629252 L55.164338,35.8629252 C55.164338,35.2672525 54.9141549,34.7192308 54.4137886,34.2188645 L46.0147828,34.2188645 Z M55.4860021,36.2203297 L44.6923862,36.2203297 C44.6923862,36.005887 44.7043011,35.8510102 44.7281266,35.7557038 C44.4898584,36.3037255 44.3588072,37.054275 44.3349817,38.0073522 L43.9775772,38.0073522 C43.9060963,36.8398323 44.0847985,34.7311457 44.5136839,31.6812925 C44.8710884,29.2271164 45.0378757,27.5354003 45.0140502,26.6061486 C44.9425693,25.8913396 44.7519521,25.2360966 44.442203,24.6404239 C44.2277603,24.2115385 43.8584409,23.7111722 43.3342491,23.139325 C43.2389427,23.0678441 43.1555468,22.9904079 43.0840659,22.907012 C43.012585,22.8236162 42.9411041,22.74618 42.8696232,22.6746991 C42.7981423,22.6032182 42.7266614,22.525782 42.6551805,22.4423862 C42.5836996,22.3589903 42.5122187,22.2696392 42.4407378,22.1743328 C41.7735842,21.2929939 41.4400052,20.3399167 41.4400052,19.3150968 C41.4400052,17.6233807 42.309691,16.1699372 44.0490581,14.9547619 C45.7169443,13.7634165 47.7660649,13.1677394 50.1964155,13.1677394 C52.6029362,13.1677394 54.6639717,13.7634165 56.3795133,14.9547619 C58.1188848,16.1699372 58.9885662,17.6233807 58.9885662,19.3150968 L58.9885662,19.3150968 C58.9885662,20.0060803 58.8217745,20.6851488 58.4881999,21.3523025 C58.4405489,21.4237834 58.4048084,21.4833493 58.3809785,21.5310047 L58.3094976,21.6739665 C57.9997442,22.1981583 57.5946886,22.686614 57.0943223,23.139325 C56.6177859,23.6158657 56.2365515,24.116232 55.9506279,24.6404239 C55.6408745,25.1883234 55.4621722,25.8435664 55.4145212,26.6061486 C55.3430403,27.6543054 55.4979127,29.3460215 55.879147,31.6812925 C56.3080324,34.5880792 56.4986453,36.7086807 56.4509942,38.0430926 L56.0578493,38.0073522 C56.0578493,37.6499477 56.0459387,37.3878496 56.0221088,37.2210623 C55.9744578,36.8874833 55.9387174,36.6492151 55.9148875,36.5062533 C55.7957556,36.0535424 55.6289639,35.624657 55.4145212,35.2195971 C55.4860021,35.5055207 55.509832,35.8390997 55.4860021,36.2203297 L55.4860021,36.2203297 Z M50.9827054,16.5273417 C51.0541863,16.5273417 51.1018373,16.5392566 51.1256672,16.5630822 C51.4115908,16.6345631 51.6617739,16.7417844 51.8762166,16.8847462 C52.9484301,17.5518998 53.687069,18.9100369 54.0921245,20.9591575 C54.1636054,21.2927365 54.1993459,21.5667452 54.1993459,21.7811879 C54.2469969,22.805746 53.9968138,23.6516062 53.4487964,24.3187598 C52.9007791,24.9620879 52.1144892,25.3790584 51.0899267,25.5696756 C50.7563521,25.617331 50.4704285,25.6411565 50.2321559,25.6411565 C49.9462323,25.664982 49.5411725,25.6530714 49.0169806,25.605416 C48.1592098,25.4386287 47.4920562,25.0693093 47.0155154,24.4974621 C46.5151491,23.9494404 46.253051,23.2227208 46.2292255,22.3172946 C46.1815701,21.9122347 46.2173106,21.4714387 46.3364469,20.994898 C46.5747151,19.5176246 47.0036005,18.4096706 47.6231031,17.6710361 C48.2664312,16.8370908 49.124202,16.4201204 50.1964155,16.4201204 C50.4562667,16.4201204 50.7183604,16.4558608 50.9827054,16.5273417 L50.9827054,16.5273417 Z M50.9827054,24.8548666 C51.8404762,24.6880792 52.4718937,24.3545003 52.8769492,23.854134 C53.3296645,23.3299421 53.5202773,22.6508736 53.4487964,21.8169283 C53.4487964,21.6739665 53.4249666,21.4356983 53.3773155,21.1021193 C53.0437409,19.2915331 52.424234,18.0882727 51.5188121,17.4923339 C51.4473312,17.4923339 51.3877609,17.4744636 51.3401099,17.4387232 C51.2924589,17.4029827 51.2447991,17.3731976 51.1971481,17.3493721 C51.5545526,17.6114701 51.8404762,17.8973937 52.0549189,18.2071429 C52.5552852,18.9219519 52.8054683,19.7797227 52.8054683,20.7804553 L52.8054683,20.7804553 C52.8054683,21.4237834 52.6863364,22.0432859 52.4480638,22.6389587 C52.3289319,22.8772269 52.1978807,23.1154994 52.0549189,23.3537677 C51.5307227,24.0924022 50.9112245,24.4617216 50.1964155,24.4617216 L50.1964155,24.4617216 C49.4816065,24.4617216 48.8621039,24.0924022 48.3379121,23.3537677 C47.8613713,22.6389587 47.6231031,21.7811879 47.6231031,20.7804553 L47.6231031,20.7804553 C47.6231031,19.7797227 47.8613713,18.9219519 48.3379121,18.2071429 C48.6238357,17.8259128 48.9335848,17.5280743 49.2671638,17.3136316 C48.8382784,17.4565934 48.4808739,17.7306021 48.1949503,18.135662 C47.6231031,18.850471 47.2418731,19.8392886 47.0512559,21.1021193 C46.979775,21.5310047 46.9440345,21.9241497 46.9440345,22.2815542 C46.96786,22.9963632 47.1823027,23.5801253 47.5873626,24.0328362 C47.9447671,24.4855471 48.468959,24.7595601 49.1599424,24.8548666 C49.4935214,24.950173 49.839011,24.9740028 50.1964155,24.9263475 C50.3847858,24.9263475 50.6468795,24.9025219 50.9827054,24.8548666 L50.9827054,24.8548666 Z M52.2693616,21.9598901 C52.3646724,21.650141 52.4123234,21.256996 52.4123234,20.7804553 L52.4123234,20.7804553 C52.4123234,19.8512036 52.1978807,19.0529987 51.7689953,18.3858451 C51.5783825,18.147843 51.4354207,17.9810557 51.3401099,17.8854788 C50.9827054,17.5995552 50.601471,17.4565934 50.1964155,17.4565934 L50.1964155,17.4565934 C49.6245683,17.4565934 49.1122871,17.7663425 48.6595761,18.3858451 C48.2068652,19.1006541 47.9805076,19.8988589 47.9805076,20.7804553 L47.9805076,20.7804553 C47.9805076,21.709707 48.2068652,22.4959969 48.6595761,23.139325 C49.1122871,23.7826531 49.6245683,24.1043171 50.1964155,24.1043171 L50.1964155,24.1043171 C50.7682627,24.1043171 51.2924589,23.7826531 51.7689953,23.139325 C51.983438,22.805746 52.1502297,22.412601 52.2693616,21.9598901 L52.2693616,21.9598901 Z M68.424045,5.9481685 C73.5468399,9.7366562 76.1082418,14.2876039 76.1082418,19.6010204 C76.1082418,24.9620879 73.5468399,29.5011251 68.424045,33.2181319 C65.827243,35.1719417 62.7297345,36.6492151 59.131528,37.6499477 L58.6311617,36.6134746 C62.1098174,35.7080484 65.1596662,34.2903454 67.7807169,32.3603611 C72.5937671,28.8339715 75.0002878,24.5808579 75.0002878,19.6010204 C75.0002878,14.6450084 72.5937671,10.3918949 67.7807169,6.84167975 C62.9200157,3.26763475 57.0585819,1.48061224 50.1964155,1.48061224 C43.3104236,1.48061224 37.4489898,3.26763475 32.6121141,6.84167975 C27.8228938,10.4157248 25.4282836,14.6688383 25.4282836,19.6010204 C25.4282836,24.557028 27.8228938,28.8101416 32.6121141,32.3603611 C35.2330819,34.2903454 38.2829307,35.7080484 41.7616693,36.6134746 L41.261303,37.6499477 C37.6634325,36.6253896 34.5659239,35.1481162 31.968786,33.2181319 C26.8698166,29.4772996 24.3203297,24.9382624 24.3203297,19.6010204 C24.3203297,14.2876039 26.8698166,9.7366562 31.968786,5.9481685 C36.972449,2.2311617 43.0483255,0.372658294 50.1964155,0.372658294 C57.3206756,0.372658294 63.3965521,2.2311617 68.424045,5.9481685 Z M32.9695186,42.9037938 L32.9695186,42.2247253 L29.0023286,41.2239927 L28.7521455,42.9037938 L32.9695186,42.9037938 Z M71.6406855,42.9037938 L71.3905024,41.2239927 L67.4233124,42.2247253 L67.4233124,42.9037938 L71.6406855,42.9037938 Z" sketch:type="MSShapeGroup" transform="translate(50.214286, 39.115306) rotate(-270.000000) translate(-50.214286, -39.115306) "/></g></g><text x="0" y="93" fill="#000000" font-size="5px" font-weight="bold" font-family="'Helvetica Neue', Helvetica, Arial-Unicode, Arial, Sans-serif">Created by Chris</text><text x="0" y="98" fill="#000000" font-size="5px" font-weight="bold" font-family="'Helvetica Neue', Helvetica, Arial-Unicode, Arial, Sans-serif">from the Noun Project</text></svg>