<svg xmlns="http://www.w3.org/2000/svg" xmlns:xlink="http://www.w3.org/1999/xlink" version="1.1" x="0px" y="0px" viewBox="0 0 100 125" enable-background="new 0 0 100 100" xml:space="preserve"><path d="M93.747,42.506h1.377c-2.777-13.531-12.896-23.563-24.96-23.563c-9.824,0-18.359,6.654-22.69,16.432l-10.65-0.708  l-2.09-6.769h7.534c1.691,0,3.061-1.37,3.061-3.061c0-1.691-1.37-3.061-3.061-3.061H5v6.122h19.097l9.905,19.376h-1.611v0.063v5.301  v0.063h1.611l-9.905,19.457H5v6.122h37.268c1.691,0,3.061-1.37,3.061-3.061c0-0.014-0.004-0.027-0.004-0.041  c0-0.014,0.004-0.027,0.004-0.041c0-1.69-1.37-3.061-3.061-3.061l-7.497,0.082l2.053-6.769l10.65-0.708l-0.086-0.076l0.076-0.005  c4.328,9.791,12.868,16.456,22.7,16.456c12.062,0,22.181-10.03,24.959-23.558h-1.376V42.506z M43.118,49.988  c0-0.011,0.003-0.021,0.003-0.032c0-1.341-0.987-2.442-2.272-2.641v-0.041h-0.247l-1.343-4.481h5.89  c-0.456,2.314-0.704,4.725-0.704,7.207c0,2.474,0.247,4.876,0.699,7.183h-5.885l1.343-4.481h0.247V52.66  c1.285-0.199,2.272-1.3,2.272-2.641C43.121,50.009,43.118,49.999,43.118,49.988z"/><text x="0" y="115" fill="#000000" font-size="5px" font-weight="bold" font-family="'Helvetica Neue', Helvetica, Arial-Unicode, Arial, Sans-serif">Created by Mark Hammar</text><text x="0" y="120" fill="#000000" font-size="5px" font-weight="bold" font-family="'Helvetica Neue', Helvetica, Arial-Unicode, Arial, Sans-serif">from the Noun Project</text></svg>