<?xml version="1.0" encoding="utf-8"?>
<svg version="1.1" x="0px" y="0px" viewBox="0 0 89.567 63.949" enable-background="new 0 0 100 100" xmlns="http://www.w3.org/2000/svg">
  <g transform="matrix(1, 0, 0, 1, -5.473516, -18.167)">
    <path fill="#FF0000" d="M71.893,28.822c-0.152-0.002-0.474,0.151-0.482,0.606l0.137-7.85c0.003-0.192-0.151-0.349-0.343-0.349h-5.539   c-0.174,0-0.32,0.129-0.34,0.301c-0.03,0.257-0.076,0.659-0.127,1.123c-0.006,0.003-0.008,0.004-0.014,0.008   c-3.337-2.034-11.837-2.517-20.199-2.404c-0.003-0.002-0.004-0.004-0.007-0.006c-0.146-1.163-2.076-2.084-4.442-2.084   c-1.999,0-4.317,0.849-4.438,2.41c-3.148,0.177-7.347,0.444-8.609,0.609c-0.223,0.029-0.395,0.198-0.443,0.418   c-0.073,0.334-0.138,0.668-0.196,1.075c-0.003,0.002-0.004,0.004-0.007,0.006c-0.874,0.003-1.763,0.015-2.656,0.035v-0.553h0.544   c0.183,0,0.286-0.21,0.174-0.355l-0.717-0.927c-0.001-0.002-0.001-0.003-0.002-0.005v-1.106c0-0.121-0.098-0.22-0.22-0.22h-4.793   c-0.121,0-0.219,0.096-0.222,0.217l-0.045,1.18c-0.001,0.002-0.001,0.003-0.002,0.005l-0.85,1.04   c-0.121,0.148-0.012,0.369,0.178,0.364l0.637-0.016l0.028,0.57C13.337,23.197,8.47,23.68,7.063,23.999   c-0.067,0.015-0.115,0.067-0.129,0.134c-0.009,0.043-0.089,0.416-0.205,0.957l11.752,0.411c0.194,0.007,0.346,0.17,0.34,0.364   c-0.006,0.19-0.163,0.339-0.352,0.339c-0.004,0-0.008,0-0.012,0L6.579,25.789c-0.045,0.208-0.092,0.428-0.141,0.655l12.339,0.474   c0.194,0.007,0.345,0.171,0.338,0.365c-0.007,0.19-0.163,0.339-0.352,0.339c-0.005,0-0.009,0-0.014,0l-12.461-0.48   c-0.051,0.236-0.102,0.473-0.153,0.71l12.786,0.407c0.194,0.006,0.347,0.169,0.341,0.363c-0.006,0.191-0.162,0.341-0.352,0.341   c-0.004,0-0.007,0-0.011,0L5.985,28.552c-0.052,0.24-0.101,0.471-0.148,0.69l13.232,0.439c0.194,0.006,0.346,0.169,0.34,0.363   c-0.006,0.191-0.163,0.34-0.352,0.34c-0.004,0-0.007,0-0.012,0L5.686,29.941c-0.108,0.5-0.185,0.862-0.205,0.953   c-0.041,0.19,0.091,0.372,0.285,0.394l33.109,3.823c0.007,0.001,2.56,0.362,3.483,1.111c0.869,0.562,2.087,2.127,1.6,3.765   c-0.356,1.184-11.786,32.283-13.319,36.31c-0.095,0.249,0.008,0.529,0.243,0.653c1.849,0.981,9.177,4.381,11.049,4.866   c0.264,0.068,0.535-0.075,0.629-0.33c1.526-4.123,13.648-36.865,13.648-36.865c0.395-0.946,1.009-1.419,1.104-1.454   c0.066,0.054,0.005,0,0.009,0.001c0,0,1.907,1.779,2.604,2.411c0.135,0.122,0.336,0.112,0.462-0.02   c0.407-0.43,1.162-1.229,1.555-1.646c0.126-0.134,0.121-0.34-0.011-0.467c-0.623-0.6-2.139-2.032-2.139-2.032   c0.092-0.048,0.185-0.13,0.339-0.167c0.173-0.011,7.833-0.139,10.341-0.183c0.44-0.008,0.792-0.363,0.798-0.804l0.015-0.981   c0.054,0.321,0.207,0.562,0.536,0.562c0.287,0,0.558-0.149,0.558-0.461c0,0,0.003-9.905,0.003-9.906   C72.385,29.096,72.216,28.826,71.893,28.822z"/>
    <path fill="none" d="M43.958,40.021l0.974,0.366C44.503,40.218,44.166,40.09,43.958,40.021z"/>
    <path fill="#FF0000" d="M73.937,28.126h-0.008c-0.454,0-0.823,0.368-0.823,0.823v10.803c0,0.434,0.352,0.785,0.785,0.785h0.094   c0.334,0,0.612-0.232,0.686-0.542V28.711C74.672,28.372,74.296,28.126,73.937,28.126z"/>
    <path fill="#FF0000" d="M81.098,28.695c0.011-0.383-0.397-0.622-0.777-0.622h-4.15c-0.378,0-0.783,0.252-0.773,0.618c0,0-0.006,11.469-0.01,11.473   c0,0.374,0.382,0.677,0.78,0.677h4.162c0.401,0,0.78-0.303,0.78-0.687C81.104,40.149,81.098,28.695,81.098,28.695z"/>
    <path fill="#FF0000" d="M94.108,33.744l-7.964-0.41c-0.003-0.003-0.004-0.005-0.007-0.008v-3.723c0-0.362-0.403-0.663-0.985-0.656h-0.021   c-0.497,0-1.026,0.181-1.026,0.536v9.769l0,0c0,0.307,0.518,0.466,0.978,0.466h0.133c0.509,0,0.922-0.275,0.922-0.614v-3.766   c0.003-0.003,0.004-0.005,0.007-0.008l7.965-0.41c0.233-0.01,0.418-0.202,0.418-0.435V34.18   C94.526,33.946,94.342,33.754,94.108,33.744z"/>
    <path fill="#FF0000" d="M83.39,28.897c0-0.422-0.342-0.764-0.764-0.764h-0.008c-0.388,0-0.794,0.239-0.794,0.635v11.174   c0,0.38,0.387,0.603,0.756,0.603h0.094c0.395,0,0.715-0.32,0.715-0.715v-0.564c-0.002-0.003-0.007-0.003-0.007-0.007L83.39,28.897z   "/>
    <g>
      <path fill="#FF0000" d="M38.268,76.656c-0.075,0-0.15-0.013-0.225-0.04c-0.337-0.125-0.509-0.498-0.385-0.835l12.353-33.525    c0.125-0.337,0.498-0.51,0.835-0.385c0.337,0.124,0.51,0.498,0.386,0.834L38.878,76.23C38.781,76.493,38.533,76.656,38.268,76.656    z"/>
    </g>
  </g>
</svg>